<?xml version="1.0" encoding="UTF-8" standalone="no"?>
<svg
   version="1.1"
   id="Layer_1"
   x="0px"
   y="0px"
   viewBox="0 0 122.88 120.54"
   style="enable-background:new 0 0 122.88 120.54"
   xml:space="preserve"
   sodipodi:docname="add-data.svg"
   inkscape:version="1.3.2 (091e20e, 2023-11-25, custom)"
   xmlns:inkscape="http://www.inkscape.org/namespaces/inkscape"
   xmlns:sodipodi="http://sodipodi.sourceforge.net/DTD/sodipodi-0.dtd"
   xmlns="http://www.w3.org/2000/svg"
   xmlns:svg="http://www.w3.org/2000/svg"><defs
     id="defs1" /><sodipodi:namedview
     id="namedview1"
     pagecolor="#ffffff"
     bordercolor="#000000"
     borderopacity="0.25"
     inkscape:showpageshadow="2"
     inkscape:pageopacity="0.0"
     inkscape:pagecheckerboard="0"
     inkscape:deskcolor="#d1d1d1"
     inkscape:zoom="2.8284271"
     inkscape:cx="-49.143921"
     inkscape:cy="37.653436"
     inkscape:window-width="1920"
     inkscape:window-height="1009"
     inkscape:window-x="-8"
     inkscape:window-y="-8"
     inkscape:window-maximized="1"
     inkscape:current-layer="Layer_1" /><style
     type="text/css"
     id="style1">.st0{fill-rule:evenodd;clip-rule:evenodd;}</style><g
     id="g1"><path
       class="st0"
       d="M95.7,65.5c15.01,0,27.18,12.17,27.18,27.18c0,15.01-12.17,27.18-27.18,27.18 c-15.01,0-27.18-12.17-27.18-27.18C68.52,77.67,80.69,65.5,95.7,65.5L95.7,65.5z M17.69,26.67c8.1,2.71,19.38,4.38,31.91,4.38 s23.81-1.67,31.91-4.38c7.11-2.37,11.51-5.25,11.51-8.06c0-2.81-4.4-5.69-11.51-8.06c-8.1-2.7-19.38-4.38-31.91-4.38 s-23.81,1.67-31.91,4.38C2.6,15.59,2.18,21.5,17.69,26.67L17.69,26.67z M6.24,47.86c0.56,2.62,4.83,5.26,11.45,7.47 c8.1,2.71,19.38,4.38,31.91,4.38s23.81-1.67,31.91-4.38c7.11-2.37,11.51-5.25,11.51-8.06h0.03v-19.3 c-2.53,1.73-5.78,3.26-9.59,4.53c-8.73,2.91-20.71,4.72-33.86,4.72c-13.16,0-25.13-1.8-33.86-4.72c-3.77-1.26-6.98-2.76-9.49-4.47 V47.86L6.24,47.86z M111.47,89.64v6.07c0,1.24-1.01,2.25-2.25,2.25h-8.24v8.24c0,1.24-1.01,2.25-2.25,2.25h-6.07 c-1.24,0-2.25-1.01-2.25-2.25v-8.24h-8.24c-1.24,0-2.25-1.01-2.25-2.25v-6.07c0-1.24,1.01-2.25,2.25-2.25h8.24v-8.24 c0-1.24,1.01-2.25,2.25-2.25h6.07c1.24,0,2.25,1.01,2.25,2.25v8.24h8.24C110.46,87.39,111.47,88.41,111.47,89.64L111.47,89.64z M63.3,92.54c-4.35,0.44-8.95,0.67-13.7,0.67c-13.16,0-25.13-1.8-33.86-4.72c-3.77-1.26-6.98-2.76-9.49-4.47v18.49 c0.56,2.62,4.83,5.26,11.45,7.47c8.1,2.7,19.38,4.38,31.91,4.38c7.52,0,14.58-0.6,20.78-1.67c1.56,1.94,3.33,3.7,5.29,5.24 c-7.53,1.65-16.49,2.6-26.07,2.6c-13.16,0-25.13-1.8-33.86-4.72c-4.6-1.54-15.67-6.58-15.67-12.62c0-0.71,0-1.3,0-1.98 C0.06,73.69,0,46.15,0,18.61c0-5.76,6.01-10.65,15.73-13.9C24.46,1.8,36.44,0,49.6,0c13.16,0,25.13,1.8,33.86,4.72 c8.85,2.95,14.62,7.27,15.59,12.37c0.12,0.32,0.18,0.67,0.18,1.04v42.37c-1.2-0.14-2.42-0.21-3.66-0.21c-0.85,0-1.68,0.03-2.51,0.1 v-3.74c-2.53,1.73-5.78,3.26-9.59,4.53c-8.73,2.91-20.71,4.72-33.86,4.72c-13.16,0-25.13-1.8-33.86-4.72 c-3.77-1.26-6.98-2.76-9.49-4.47v18.49c0.56,2.62,4.83,5.26,11.45,7.47c8.1,2.7,19.38,4.38,31.91,4.38c5.01,0,9.82-0.27,14.31-0.76 C63.51,88.3,63.3,90.4,63.3,92.54L63.3,92.54z"
       id="path1" /></g><path
     style="fill:#ffffff;fill-opacity:1;stroke:#ffffff;stroke-width:0.125"
     d="m 45.6875,120.41645 c -13.400541,-0.41191 -25.736399,-2.65723 -33.5,-6.09753 -6.4577654,-2.86164 -10.7983498,-6.40758 -11.77351521,-9.6181 L 0.14523294,103.81601 0.13511646,60.501756 C 0.12536584,18.75387 0.13333227,17.160377 0.35540932,16.4375 3.0442097,7.6852482 18.908839,1.5814504 42.4375,0.24672824 45.456429,0.07547197 53.74104,0.07563189 56.82445,0.24700592 72.588629,1.1231692 85.504459,4.3255057 92.6875,9.1388505 c 3.609177,2.4185045 5.441325,4.6996805 6.263556,7.7986495 0.22183,0.836071 0.232255,1.820816 0.234301,22.134037 l 0.0021,21.259039 -3.061993,-0.009 -3.061992,-0.009 -5.08e-4,-1.84375 c -2.78e-4,-1.014063 -0.02256,-1.84375 -0.04952,-1.84375 -0.02696,0 -0.527997,0.300715 -1.113422,0.668256 C 81.754251,63.662994 59.737849,67.053471 39.0625,65.430125 29.768422,64.700391 21.997876,63.22509 15.250754,60.909272 11.971712,59.783805 9.6389833,58.691341 6.65625,56.884292 L 6.1875,56.600306 v 9.395215 9.395216 l 0.3378867,0.690055 c 0.7773608,1.587578 3.3188605,3.437065 6.8908903,5.014605 11.182387,4.938553 30.54826,7.127778 48.32165,5.462545 1.09336,-0.102438 2.010284,-0.163897 2.037608,-0.136573 0.02732,0.02732 -0.0358,0.54838 -0.140274,1.157905 -0.104475,0.609525 -0.248566,1.947895 -0.320204,2.974156 -0.07164,1.026261 -0.148626,1.884305 -0.171085,1.906765 -0.08137,0.08137 -4.463226,0.407911 -7.393972,0.551002 -3.31862,0.16203 -12.086538,0.08515 -15,-0.131522 C 37.818719,92.661676 34.850152,92.375001 32.8125,92.113149 22.033042,90.727912 13.099527,88.114325 7.4721239,84.699574 6.838042,84.314809 6.2896045,84 6.2533739,84 c -0.036231,0 -0.065324,4.204687 -0.064653,9.34375 l 0.00122,9.34375 0.3117269,0.66963 c 1.4327048,3.07763 8.5394012,6.43672 18.1233312,8.56628 10.396506,2.3101 23.878415,3.052 36.4375,2.00511 2.34986,-0.19588 6.160819,-0.65438 8.170374,-0.98297 l 1.107873,-0.18116 0.323378,0.39905 c 0.584191,0.72091 3.446962,3.58796 4.114391,4.12054 0.359433,0.28682 0.612558,0.55818 0.5625,0.60302 -0.123177,0.11034 -3.754921,0.79594 -6.216016,1.17346 -6.99814,1.07347 -15.890826,1.58797 -23.4375,1.35599 z M 58.3125,59.506925 C 70.34878,58.656572 80.152384,56.49816 87,53.190936 c 2.965492,-1.432259 5.058616,-3.102275 5.750205,-4.587852 l 0.309852,-0.665584 0.0012,-10.025109 0.0012,-10.02511 -0.96875,0.596728 c -1.434495,0.883613 -2.699075,1.557043 -4.03125,2.14677 -11.844774,5.243435 -31.20372,7.590963 -49.875,6.048005 C 25.213316,35.606622 13.858169,32.652419 7.4318544,28.677264 6.8296716,28.304769 6.3033444,28 6.2622382,28 c -0.041106,0 -0.073503,4.514062 -0.071993,10.03125 0.00259,9.455456 0.015888,10.05995 0.2317133,10.53125 0.6644659,1.451001 2.444023,2.925079 5.2655415,4.361655 5.927106,3.017785 14.532634,5.171426 24.75,6.193996 2.105316,0.210704 3.350927,0.300881 7.6875,0.55655 1.547174,0.09121 12.325795,-0.03625 14.1875,-0.167776 z m -3.375,-28.508696 c 8.151002,-0.331104 15.393785,-1.290665 21.789276,-2.886758 8.302486,-2.072014 14.541638,-5.204831 15.979769,-8.023802 0.145294,-0.284799 0.291989,-0.864384 0.32599,-1.287967 0.05189,-0.646413 0.0097,-0.884095 -0.262858,-1.479341 C 90.843272,13.112537 79.874221,8.9295262 66.0625,7.1356682 57.602919,6.0369431 47.247816,5.8251167 38.4375,6.5705651 22.564874,7.9135614 9.0019976,12.36982 6.5245711,17.05597 c -0.3984227,0.753632 -0.3848589,2.282452 0.027687,3.120641 1.0959689,2.226734 5.3234829,4.678111 11.5196909,6.679838 9.781533,3.159991 23.391917,4.689093 36.865551,4.14178 z"
     id="path6" /><path
     style="fill:#ffffff;fill-opacity:1;stroke:#ffffff;stroke-width:0.353553"
     d="m 92.751658,119.45604 c -6.086479,-0.60552 -11.496622,-3.2917 -16.216814,-8.05178 -4.932498,-4.97418 -7.338796,-10.48257 -7.660396,-17.535835 -0.365027,-8.005721 2.140545,-14.433308 7.853209,-20.145972 5.349792,-5.349793 11.542625,-7.940643 19.015518,-7.955384 4.218927,-0.0083 7.525955,0.785204 11.748695,2.819113 5.52086,2.659161 10.37918,7.593978 12.75279,12.953591 2.55206,5.762577 3.06334,12.558535 1.37969,18.33906 -2.77551,9.529217 -10.11214,16.654887 -19.44742,18.888207 -3.563957,0.85262 -5.994601,1.0303 -9.425272,0.689 z m 7.808622,-11.84671 c 0.64716,-0.82273 0.73277,-1.41828 0.73277,-5.09769 v -4.166129 l 4.38343,-0.117222 c 5.92007,-0.158317 5.86961,-0.110729 5.86961,-5.53587 0,-5.502046 0.14548,-5.364732 -5.68355,-5.364732 h -4.5133 l -0.11649,-4.560217 c -0.15614,-6.112756 -0.096,-6.046385 -5.474578,-6.046385 -5.489489,0 -5.425281,-0.07113 -5.425281,6.010408 v 4.596194 h -4.752923 c -5.965307,0 -5.853679,-0.101886 -5.853679,5.342801 0,5.407692 -0.0012,5.406567 5.978364,5.557062 l 4.628238,0.116485 v 4.451875 c 0,5.89446 -0.138741,5.74498 5.332436,5.74498 4.075365,0 4.177468,-0.0194 4.894953,-0.93156 z"
     id="path7" /></svg>
