<?xml version="1.0" encoding="UTF-8" standalone="no"?>
<svg
   shape-rendering="geometricPrecision"
   text-rendering="geometricPrecision"
   image-rendering="optimizeQuality"
   fill-rule="evenodd"
   clip-rule="evenodd"
   viewBox="0 0 380 511.38"
   version="1.1"
   id="svg1"
   sodipodi:docname="bold.svg"
   inkscape:version="1.3.2 (091e20e, 2023-11-25, custom)"
   xmlns:inkscape="http://www.inkscape.org/namespaces/inkscape"
   xmlns:sodipodi="http://sodipodi.sourceforge.net/DTD/sodipodi-0.dtd"
   xmlns="http://www.w3.org/2000/svg"
   xmlns:svg="http://www.w3.org/2000/svg">
  <defs
     id="defs1" />
  <sodipodi:namedview
     id="namedview1"
     pagecolor="#ffffff"
     bordercolor="#000000"
     borderopacity="0.25"
     inkscape:showpageshadow="2"
     inkscape:pageopacity="0.0"
     inkscape:pagecheckerboard="0"
     inkscape:deskcolor="#d1d1d1"
     inkscape:zoom="1.5898158"
     inkscape:cx="189.95912"
     inkscape:cy="255.69"
     inkscape:window-width="1920"
     inkscape:window-height="1009"
     inkscape:window-x="-8"
     inkscape:window-y="-8"
     inkscape:window-maximized="1"
     inkscape:current-layer="svg1" />
  <path
     fill-rule="nonzero"
     d="M0 511.38V0h179.09C241.18 0 288.3 11.87 320.3 35.72c32.13 23.73 48.19 58.62 48.19 104.53 0 25.05-6.47 47.23-19.42 66.29-12.83 19.06-30.69 33.09-53.7 41.95 26.25 6.6 46.87 19.79 61.97 39.69 15.11 19.89 22.66 44.22 22.66 73 0 49.14-15.7 86.3-46.99 111.6-31.41 25.29-76.12 38.12-134.14 38.6H0zm105.37-222.25v137.38h90.26c24.82 0 44.24-5.88 58.14-17.63 13.91-11.74 20.86-28.05 20.86-48.78 0-46.63-24.22-70.25-72.64-70.97h-96.62zm0-74.8h78.04c53.1-.95 79.71-22.05 79.71-63.53 0-23.13-6.71-39.8-20.26-49.99-13.42-10.18-34.64-15.22-63.77-15.22h-73.72v128.74z"
     id="path1" />
  <path
     style="fill:#ffffff;stroke:#ffffff;stroke-width:0.629004"
     d="M 0.31450185,255.73171 V 0 L 87.274263,0.0156871 C 203.46323,0.03664695 216.59397,0.5349528 245.94045,6.0369976 c 37.09571,6.9549174 66.81333,21.0160284 87.22064,41.2690894 22.04175,21.875155 33.3704,50.019831 34.86064,86.607103 1.29368,31.76157 -7.58603,59.14093 -26.57955,81.95437 -10.10341,12.13539 -24.78189,23.0194 -39.8341,29.53678 -3.45996,1.49811 -6.29026,2.86846 -6.28955,3.04523 7.1e-4,0.17676 3.60962,1.44357 8.0198,2.81512 36.45979,11.3389 63.42289,40.04176 72.48813,77.16534 5.08065,20.80601 4.94635,49.53677 -0.34209,73.18883 -8.88516,39.73801 -31.78539,68.87817 -68.61141,87.30686 -23.07839,11.54902 -48.05646,17.86289 -84.20565,21.28523 -5.153,0.48785 -41.62758,0.79993 -114.95043,0.98354 L 0.31450185,511.46342 Z M 214.48369,425.60698 c 13.9906,-2.32447 24.1189,-5.97024 33.40915,-12.02593 19.833,-12.92781 28.77745,-33.66886 26.65264,-61.80418 -1.01524,-13.44324 -3.08888,-21.55669 -7.92848,-31.02137 -8.2793,-16.19163 -22.88059,-25.91896 -45.5222,-30.32672 -6.27021,-1.22065 -9.36678,-1.29854 -61.17061,-1.5386 l -54.56607,-0.25287 v 69.28408 69.28409 l 51.42105,-0.27727 c 44.05684,-0.23756 52.32093,-0.42678 57.70452,-1.32123 z M 197.55517,213.8196 c 35.85235,-3.49942 56.81089,-17.95808 63.59794,-43.87428 1.94115,-7.41227 2.68158,-22.93659 1.51284,-31.71917 -1.63389,-12.27798 -5.82003,-22.9501 -11.93868,-30.43641 -7.41479,-9.07217 -20.63331,-16.041789 -36.73102,-19.366866 -12.48664,-2.579186 -19.21812,-2.878371 -64.76127,-2.878371 h -43.87686 v 64.472877 64.47288 h 42.66301 c 25.49299,0 45.4283,-0.26991 49.53404,-0.67066 z"
     id="path2" />
</svg>
