<?xml version="1.0" encoding="UTF-8" standalone="no"?>
<svg
   id="Layer_1"
   data-name="Layer 1"
   viewBox="0 0 120.09 122.88"
   version="1.1"
   sodipodi:docname="data-processing-2.svg"
   inkscape:version="1.3.2 (091e20e, 2023-11-25, custom)"
   xmlns:inkscape="http://www.inkscape.org/namespaces/inkscape"
   xmlns:sodipodi="http://sodipodi.sourceforge.net/DTD/sodipodi-0.dtd"
   xmlns="http://www.w3.org/2000/svg"
   xmlns:svg="http://www.w3.org/2000/svg">
  <defs
     id="defs1" />
  <sodipodi:namedview
     id="namedview1"
     pagecolor="#ffffff"
     bordercolor="#000000"
     borderopacity="0.25"
     inkscape:showpageshadow="2"
     inkscape:pageopacity="0.0"
     inkscape:pagecheckerboard="0"
     inkscape:deskcolor="#d1d1d1"
     inkscape:zoom="6.6162111"
     inkscape:cx="60.004132"
     inkscape:cy="61.439999"
     inkscape:window-width="1920"
     inkscape:window-height="1009"
     inkscape:window-x="-8"
     inkscape:window-y="-8"
     inkscape:window-maximized="1"
     inkscape:current-layer="Layer_1" />
  <title
     id="title1">data-update</title>
  <path
     d="M16.83,25.39C24.55,28,35.28,29.55,47.2,29.55S69.86,28,77.57,25.39c6.77-2.26,11-5,11-7.68s-4.19-5.41-11-7.67C69.86,7.47,59.13,5.88,47.2,5.88S24.55,7.47,16.83,10c-14.36,4.8-14.75,10.42,0,15.35Zm70.1,31.17a33.09,33.09,0,0,1,23.44,9.71v0a33.12,33.12,0,0,1,0,46.86l0,0a33.12,33.12,0,0,1-46.86,0l0,0a33.12,33.12,0,0,1,0-46.86l0,0a33.06,33.06,0,0,1,23.43-9.71Zm1.88,17.52L86,88.12l-2.8-4.22c-6,2.42-9.42,6.42-9.92,12.56-5-8.66-1.95-16.43,4.33-21l-2.86-4.3,14,2.9Zm-4.49,32.13,2.76-14,2.81,4.22c6-2.42,9.42-6.42,9.92-12.56,5,8.66,2,16.43-4.33,21l2.86,4.3-14-2.9ZM106.7,70a28,28,0,1,0,8.19,19.77A27.84,27.84,0,0,0,106.7,70ZM43.92,91C32.69,90.77,22.55,89.12,15,86.6a37.06,37.06,0,0,1-9-4.26v19.18c.53,2.49,4.59,5,10.89,7.11,7.72,2.58,18.45,4.17,30.37,4.17,1.15,0,2.29,0,3.42,0a43.68,43.68,0,0,0,4.32,5.69q-3.78.22-7.74.22c-12.52,0-23.92-1.71-32.23-4.48-4.38-1.47-14.91-6.27-14.91-12V100.3C.06,74.09,0,43.92,0,17.71,0,12.23,5.72,7.58,15,4.49,23.28,1.71,34.68,0,47.2,0S71.12,1.71,79.43,4.49s13.92,6.92,14.84,11.77a2.93,2.93,0,0,1,.17,1V47.35a42.18,42.18,0,0,0-6.08-.64,2.77,2.77,0,0,0,.17-.93h0V26.62a37,37,0,0,1-9.13,4.32c-8.31,2.77-19.71,4.49-32.23,4.49S23.28,33.71,15,30.94a37.44,37.44,0,0,1-9-4.25V46.34c.53,2.49,4.59,5,10.89,7.11C24.55,56,35.28,57.62,47.2,57.62c4.08,0,8-.19,11.74-.54-.62.53-1.22,1.08-1.8,1.64-.22.18-.42.37-.62.56l0,0,0,0,0,0a43.9,43.9,0,0,0-3.55,4c-1.89.08-3.8.12-5.75.12C34.68,63.49,23.28,61.78,15,59a37.06,37.06,0,0,1-9-4.25V73.93c.53,2.49,4.59,5,10.89,7.11,7.05,2.35,16.61,3.88,27.31,4.13a42.92,42.92,0,0,0-.24,4.55c0,.44,0,.88,0,1.32Z"
     id="path1" />
  <path
     style="fill:#ffffff;stroke:#ffffff;stroke-width:0.151144"
     d="M 42.16915,118.54607 C 31.860199,118.13006 21.317048,116.38137 14.613556,113.9757 7.9129342,111.57106 2.4833833,107.88634 0.8893934,104.6619 L 0.30228782,103.47426 0.19062502,86.160155 C 0.12921049,76.637396 0.09520311,56.977475 0.11505307,42.471438 L 0.15114391,16.096826 0.50639666,15.148318 C 3.4507519,7.2870231 18.164256,1.6655177 39.372988,0.29877807 42.572912,0.09256763 51.691626,0.09281843 55.016383,0.29920833 72.181866,1.3647848 85.4543,5.3551154 91.215349,11.182354 c 1.397035,1.413086 2.238536,2.702985 2.762378,4.234325 l 0.336072,0.982435 0.04055,15.424135 0.04055,15.424134 -1.249698,-0.186164 C 92.45786,46.95883 91.147334,46.827504 90.232913,46.769383 L 88.57033,46.663709 88.61325,36.632518 c 0.02421,-5.658165 -0.01469,-10.03119 -0.08923,-10.03119 -0.07268,0 -0.704126,0.345807 -1.403211,0.768461 -6.666658,4.030541 -17.476655,6.693346 -31.348699,7.722064 -3.341946,0.247831 -13.907516,0.246601 -17.154833,-0.002 -9.692559,-0.742011 -17.04365,-2.065907 -23.578458,-4.24636 -2.792483,-0.931761 -4.984554,-1.896114 -7.2207083,-3.176589 L 6.0457563,26.652012 6.0068918,36.700406 5.9680272,46.7488 6.335176,47.368496 c 0.840876,1.419279 2.6599938,2.782292 5.553199,4.160853 6.498269,3.096311 15.492595,5.051089 27.257897,5.924082 4.55221,0.337778 17.013213,0.163765 19.180674,-0.267851 0.366573,-0.073 0.200857,0.130016 -1.006387,1.232898 -1.238184,1.131149 -2.323193,2.294466 -4.082217,4.376848 l -0.378825,0.448462 -4.392767,0.06067 C 35.456008,63.484144 23.464472,61.844795 14.131955,58.610585 12.199801,57.940991 8.7097602,56.310576 7.1388876,55.343689 6.5763015,54.997412 6.0831945,54.714095 6.0430942,54.714095 c -0.0401,0 -0.072272,4.403955 -0.071491,9.786568 l 0.00142,9.786568 0.4449494,0.775784 c 1.4371594,2.505733 6.8565464,5.223476 14.2887444,7.165593 5.833773,1.524432 12.367544,2.462914 20.026568,2.876533 1.787277,0.09652 3.262268,0.185851 3.277755,0.198514 0.01549,0.01266 -0.01153,1.282665 -0.06004,2.822226 l -0.08821,2.799203 -1.451395,-0.04648 C 32.228993,90.552496 22.452984,88.979533 14.819211,86.439006 12.544567,85.682003 8.4589219,83.798357 6.8770478,82.777353 l -0.8312915,-0.53655 -0.038888,9.837722 -0.038888,9.837725 0.3644306,0.62185 c 2.1132635,3.60601 11.2328661,7.21774 22.7226551,8.99908 5.047097,0.78249 10.147151,1.18303 16.772808,1.31728 l 4.867876,0.0986 0.818612,1.22264 c 0.450236,0.67245 1.252342,1.75959 1.782456,2.41587 0.530115,0.65628 1.080821,1.34283 1.223794,1.52567 l 0.259948,0.33243 -2.513461,0.0991 c -2.366669,0.0933 -7.752904,0.0919 -10.097949,-0.003 z M 53.429371,29.471425 c 12.497684,-0.635589 22.53121,-2.740724 29.548635,-6.199604 5.629323,-2.774686 7.044247,-5.578235 4.218973,-8.35953 C 83.772046,11.540671 74.412556,8.3343734 63.782729,6.891229 54.806828,5.6726277 43.96067,5.5040449 34.536383,6.4366507 19.791181,7.8958019 7.4812729,12.303894 6.0408121,16.640716 c -0.9656104,2.907181 2.0757226,5.599218 9.3758669,8.299055 6.962559,2.574986 15.463642,4.047995 26.450184,4.583107 2.319564,0.112977 8.905581,0.08367 11.562508,-0.05145 z"
     id="path2" />
  <path
     style="fill:#ffffff;stroke:#ffffff;stroke-width:0.151144"
     d="m 72.556134,94.88927 c -1.185535,-2.565935 -1.646439,-4.551625 -1.642119,-7.074659 0.0074,-4.318155 1.996086,-8.317402 5.67816,-11.41874 0.561122,-0.472622 1.020222,-0.920539 1.020222,-0.995371 0,-0.07483 -0.576018,-0.998512 -1.28004,-2.05262 -0.704021,-1.054108 -1.256471,-1.940128 -1.227666,-1.968934 0.05641,-0.05641 13.426047,2.684691 13.525314,2.773013 0.09132,0.08126 -2.611477,13.511508 -2.719153,13.511508 -0.05189,0 -0.657514,-0.850185 -1.345835,-1.889299 -0.688322,-1.039115 -1.337832,-1.889299 -1.443356,-1.889299 -0.413039,0 -3.288316,1.565375 -4.405493,2.398464 -2.848447,2.124112 -4.510189,4.730213 -5.214499,8.177867 -0.161251,0.789336 -0.321969,1.463942 -0.357152,1.499126 -0.03518,0.03518 -0.299956,-0.446792 -0.588383,-1.071056 z"
     id="path3" />
  <path
     style="fill:#ffffff;stroke:#ffffff;stroke-width:0.151144"
     d="m 83.960441,122.63596 c -6.027108,-0.72836 -10.756685,-2.4114 -15.292553,-5.44191 -13.860885,-9.26076 -18.68935,-27.094834 -11.37637,-42.018945 1.732607,-3.535853 3.8422,-6.408148 6.813825,-9.277293 4.806101,-4.640358 10.635255,-7.602676 17.285651,-8.784396 2.272844,-0.403865 6.615834,-0.544189 8.930748,-0.288556 15.299508,1.689504 27.261558,13.31133 29.374308,28.538858 0.30962,2.231536 0.30962,6.448847 0,8.680382 -1.85403,13.36277 -11.39691,24.1614 -24.399816,27.61058 -2.824571,0.74925 -4.331074,0.94406 -7.708339,0.99681 -1.704148,0.0266 -3.336502,0.0196 -3.627454,-0.0155 z m 5.365609,-4.89725 c 9.832481,-0.90653 18.13037,-6.52144 22.6068,-15.29729 6.72278,-13.179694 1.82538,-29.631359 -11.00675,-36.974623 -13.993379,-8.007796 -31.795706,-2.706404 -39.084746,11.63913 -3.002142,5.908503 -3.793224,13.11786 -2.151423,19.606512 3.36601,13.302991 16.021103,22.281541 29.636119,21.026271 z"
     id="path4" />
  <path
     style="fill:#ffffff;stroke:#ffffff;stroke-width:0.151144"
     d="m 90.988633,107.58185 c -3.574554,-0.74953 -6.516044,-1.37741 -6.536645,-1.39528 -0.0413,-0.0358 2.49228,-12.98515 2.630155,-13.442908 0.0651,-0.216133 0.397345,0.196605 1.368768,1.700369 0.815295,1.262079 1.376221,1.985782 1.539134,1.985782 0.338494,0 2.576269,-1.133073 3.719178,-1.883165 1.348544,-0.885051 3.550694,-3.150222 4.267188,-4.389307 0.760471,-1.315137 1.46032,-3.27562 1.719101,-4.815706 l 0.197152,-1.173321 0.480646,0.954071 c 3.53402,7.014981 1.9493,14.063075 -4.315593,19.193715 l -0.674385,0.55228 1.316746,1.97666 c 0.724211,1.08716 1.316746,2.01109 1.316746,2.05319 0,0.14502 -0.550465,0.0419 -7.028191,-1.31638 z"
     id="path5" />
</svg>
