<?xml version="1.0" encoding="UTF-8" standalone="no"?>
<svg
   version="1.1"
   id="Layer_1"
   x="0px"
   y="0px"
   viewBox="0 0 122.88 120.54"
   style="enable-background:new 0 0 122.88 120.54"
   xml:space="preserve"
   sodipodi:docname="data-processing-3.svg"
   inkscape:version="1.3.2 (091e20e, 2023-11-25, custom)"
   xmlns:inkscape="http://www.inkscape.org/namespaces/inkscape"
   xmlns:sodipodi="http://sodipodi.sourceforge.net/DTD/sodipodi-0.dtd"
   xmlns="http://www.w3.org/2000/svg"
   xmlns:svg="http://www.w3.org/2000/svg"><defs
     id="defs1" /><sodipodi:namedview
     id="namedview1"
     pagecolor="#ffffff"
     bordercolor="#000000"
     borderopacity="0.25"
     inkscape:showpageshadow="2"
     inkscape:pageopacity="0.0"
     inkscape:pagecheckerboard="0"
     inkscape:deskcolor="#d1d1d1"
     inkscape:zoom="6.744649"
     inkscape:cx="61.381993"
     inkscape:cy="60.27"
     inkscape:window-width="1920"
     inkscape:window-height="1009"
     inkscape:window-x="-8"
     inkscape:window-y="-8"
     inkscape:window-maximized="1"
     inkscape:current-layer="Layer_1" /><style
     type="text/css"
     id="style1">.st0{fill-rule:evenodd;clip-rule:evenodd;}</style><g
     id="g1"><path
       class="st0"
       d="M95.7,65.5c15.01,0,27.18,12.17,27.18,27.18c0,15.01-12.17,27.18-27.18,27.18 c-15.01,0-27.18-12.17-27.18-27.18C68.52,77.67,80.69,65.5,95.7,65.5L95.7,65.5z M95.96,86.85c3.24,0,5.86,2.63,5.86,5.86 s-2.63,5.86-5.86,5.86s-5.86-2.63-5.86-5.86S92.72,86.85,95.96,86.85L95.96,86.85z M106.25,79.94l2.32,2.32 c0.61,0.61,0.61,1.61,0,2.22l-1.87,1.87c0.52,0.97,0.91,2.02,1.16,3.09h2.42c0.87,0,1.57,0.71,1.57,1.57v3.28 c0,0.86-0.71,1.57-1.57,1.57h-2.64c-0.32,1.06-0.78,2.07-1.37,3l1.71,1.71c0.61,0.61,0.61,1.61,0,2.22l-2.32,2.32 c-0.61,0.61-1.61,0.61-2.22,0l-1.87-1.87c-0.97,0.52-2.02,0.92-3.09,1.16v2.42c0,0.86-0.71,1.57-1.57,1.57l-3.28,0 c-0.86,0-1.57-0.71-1.57-1.57v-2.64c-1.06-0.32-2.07-0.78-3-1.37l-1.71,1.71c-0.61,0.61-1.61,0.61-2.22,0l-2.32-2.32 c-0.61-0.61-0.61-1.61,0-2.22l1.87-1.87c-0.52-0.97-0.91-2.02-1.16-3.09l-2.42,0c-0.86,0-1.57-0.71-1.57-1.57v-3.28 c0-0.86,0.71-1.57,1.57-1.57h2.64c0.32-1.06,0.78-2.07,1.37-3.01l-1.71-1.71c-0.61-0.61-0.61-1.61,0-2.22l2.32-2.32 c0.61-0.61,1.61-0.61,2.22,0l1.87,1.87c0.96-0.52,2-0.91,3.09-1.16v-2.42c0-0.86,0.71-1.57,1.57-1.57h3.28 c0.86,0,1.57,0.71,1.57,1.57v2.64c1.06,0.32,2.07,0.78,3.01,1.37l1.71-1.71C104.64,79.33,105.64,79.33,106.25,79.94L106.25,79.94 L106.25,79.94z M17.69,26.67c8.1,2.71,19.38,4.38,31.91,4.38c12.53,0,23.81-1.67,31.91-4.38c7.11-2.37,11.51-5.25,11.51-8.06 c0-2.81-4.4-5.69-11.51-8.06c-8.1-2.7-19.38-4.38-31.91-4.38c-12.53,0-23.81,1.67-31.91,4.38C2.6,15.59,2.18,21.5,17.69,26.67 L17.69,26.67z M6.24,47.86c0.56,2.62,4.83,5.26,11.45,7.47c8.1,2.71,19.38,4.38,31.91,4.38s23.81-1.67,31.91-4.38 c7.11-2.37,11.51-5.25,11.51-8.06h0.03v-19.3c-2.53,1.73-5.78,3.26-9.59,4.53c-8.73,2.91-20.71,4.72-33.86,4.72 c-13.16,0-25.13-1.8-33.86-4.72c-3.77-1.26-6.98-2.76-9.49-4.47V47.86L6.24,47.86z M63.3,92.54c-4.35,0.44-8.95,0.67-13.7,0.67 c-13.16,0-25.13-1.8-33.86-4.72c-3.77-1.26-6.98-2.76-9.49-4.47v18.49c0.56,2.62,4.83,5.26,11.45,7.47 c8.1,2.7,19.38,4.38,31.91,4.38c7.52,0,14.58-0.6,20.78-1.67c1.56,1.94,3.33,3.7,5.29,5.24c-7.53,1.65-16.49,2.6-26.07,2.6 c-13.16,0-25.13-1.8-33.86-4.72c-4.6-1.54-15.67-6.58-15.67-12.62c0-0.71,0-1.3,0-1.98C0.06,73.69,0,46.15,0,18.61 c0-5.76,6.01-10.65,15.73-13.9C24.46,1.8,36.44,0,49.6,0c13.16,0,25.13,1.8,33.86,4.72c8.85,2.95,14.62,7.27,15.59,12.37 c0.12,0.32,0.18,0.67,0.18,1.04v42.37c-1.2-0.14-2.42-0.21-3.66-0.21c-0.85,0-1.68,0.03-2.51,0.1v-3.74 c-2.53,1.73-5.78,3.26-9.59,4.53c-8.73,2.91-20.71,4.72-33.86,4.72c-13.16,0-25.13-1.8-33.86-4.72c-3.77-1.26-6.98-2.76-9.49-4.47 v18.49c0.56,2.62,4.83,5.26,11.45,7.47c8.1,2.7,19.38,4.38,31.91,4.38c5.01,0,9.82-0.27,14.31-0.76 C63.51,88.3,63.3,90.4,63.3,92.54L63.3,92.54z"
       id="path1" /></g><path
     style="fill:#ffffff;stroke:#ffffff;stroke-width:0.148266"
     d="m 42.626384,120.29937 c -5.923356,-0.39201 -9.981384,-0.82315 -13.862841,-1.47284 -9.417709,-1.57635 -15.940121,-3.713 -21.3502588,-6.99405 -3.6737101,-2.22796 -5.9986859,-4.52532 -6.92285004,-6.84061 L 0.15704758,104.15664 0.1048227,61.006728 C 0.04645076,12.777922 -0.04427247,16.91812 1.1199628,14.680313 2.6033742,11.829009 5.5538636,9.34068 10.082066,7.1220204 17.508076,3.4835375 28.427699,1.1226735 41.662657,0.29417569 c 3.248826,-0.20337393 12.615602,-0.20337393 15.864428,0 C 70.93068,1.13323 82.15873,3.602474 89.552473,7.3371168 c 4.275211,2.1594463 7.077038,4.5719842 8.50669,7.3247602 1.130568,2.176894 1.056447,0.472209 1.056447,24.296819 v 21.346408 l -2.964854,-0.01755 -2.964854,-0.01755 -4.6e-4,-1.816254 c -2.52e-4,-0.99894 -0.05715,-1.816255 -0.126447,-1.816255 -0.06929,0 -0.753169,0.378637 -1.519723,0.841415 -6.262056,3.780476 -16.498181,6.505346 -29.119419,7.751625 C 56.788151,65.786633 45.994131,65.951015 40.69893,65.56132 25.796533,64.464591 13.979519,61.499252 7.0868086,57.126759 6.6626087,56.857661 6.2789712,56.637491 6.234281,56.637491 c -0.1706039,0 -0.085733,18.475566 0.087247,18.99295 1.281905,3.834168 10.749264,7.859505 23.479874,9.983187 8.816072,1.470671 21.286084,1.891188 30.980738,1.04474 3.319345,-0.289813 3.099814,-0.303707 2.974648,0.188256 -0.175311,0.689059 -0.51196,3.766064 -0.516849,4.724052 l -0.0046,0.90621 -1.074926,0.09427 c -4.49506,0.394215 -6.186458,0.456602 -12.491384,0.460736 -7.110735,0.0047 -9.172897,-0.09078 -14.60417,-0.675896 C 23.251139,91.08329 12.895116,88.178339 7.2974617,84.56702 6.7444824,84.210266 6.2607657,83.918377 6.2225355,83.918377 c -0.03823,0 -0.068044,4.220012 -0.066253,9.377805 0.00369,10.638208 -0.073333,9.941818 1.2569502,11.363998 3.3459323,3.57707 13.1354823,6.98644 24.6865383,8.59747 5.895948,0.82231 10.429842,1.10982 17.4951,1.10942 7.310324,-4.1e-4 11.772602,-0.2926 18.043967,-1.18153 l 2.698469,-0.38248 0.488992,0.56956 c 1.03002,1.19973 2.164322,2.35393 3.306543,3.36454 0.652369,0.5772 1.172776,1.08512 1.156459,1.1287 -0.133196,0.35575 -9.103372,1.67752 -14.722769,2.16942 -2.572127,0.22516 -15.625122,0.41731 -17.940148,0.26409 z M 59.973469,59.393555 c 11.40999,-0.968361 20.327492,-2.997265 26.806679,-6.099038 3.228653,-1.545649 5.091764,-2.982285 5.931348,-4.573632 l 0.399353,-0.756936 0.04292,-10.045 c 0.02361,-5.52475 0.01695,-10.045 -0.01479,-10.045 -0.03174,0 -0.684889,0.37882 -1.451444,0.841822 -7.242603,4.374568 -19.339755,7.275661 -34.234585,8.210013 -3.341961,0.20964 -12.3742,0.20964 -15.716162,0 C 26.873109,35.993387 14.658167,33.06073 7.487417,28.702935 6.8758211,28.331258 6.3253847,28.026045 6.2642251,28.024686 c -0.06116,-0.0014 -0.1105474,4.484418 -0.1097508,9.968395 l 0.00145,9.970868 0.3525673,0.741328 c 0.72428,1.522913 2.7037272,3.058769 5.9369164,4.606461 7.235514,3.463562 17.698716,5.611421 30.922307,6.347654 2.480186,0.138086 14.023874,-0.04671 16.605756,-0.265837 z M 59.380406,30.764922 c 12.626081,-0.963155 23.374997,-3.587936 29.483773,-7.199651 3.493349,-2.065389 4.827184,-4.24262 3.87897,-6.331683 C 90.958769,13.302318 80.504219,9.1787858 67.683285,7.3493587 61.460013,6.4613564 56.971715,6.1682986 49.594871,6.1682986 c -5.835103,0 -8.670384,0.1255196 -13.269778,0.5874612 C 21.637084,8.2309549 9.2253955,12.469705 6.6206348,16.900209 c -0.3262216,0.55488 -0.3928074,0.84667 -0.3895635,1.707134 0.00471,1.249598 0.2260917,1.720692 1.3742887,2.924456 1.9960194,2.092619 6.501654,4.235127 12.558773,5.971917 6.436673,1.845621 14.391588,3.043568 23.129447,3.483109 3.532151,0.177677 12.463768,0.05447 16.086826,-0.221903 z"
     id="path2" /><path
     style="fill:#ffffff;stroke:#ffffff;stroke-width:0.148266"
     d="m 94.260446,98.2404 c -1.490348,-0.485699 -2.816358,-1.675403 -3.563938,-3.197587 -0.356587,-0.726064 -0.402707,-0.989772 -0.402707,-2.302628 0,-1.319569 0.0468,-1.58396 0.425424,-2.403624 0.494372,-1.070229 1.730547,-2.330738 2.780464,-2.835198 3.420161,-1.643303 7.378991,0.450966 8.154791,4.313986 0.20024,0.99706 0.007,2.322379 -0.48776,3.353045 -0.50936,1.060112 -1.765337,2.287754 -2.835198,2.771232 -1.105194,0.499445 -3.026013,0.641357 -4.071076,0.300774 z"
     id="path3" /><path
     style="fill:#ffffff;stroke:#ffffff;stroke-width:0.148266"
     d="M 92.888451,119.64564 C 82.900161,118.4287 74.607884,112.2891 70.792357,103.28572 65.665552,91.188142 69.856186,77.293083 80.804798,70.087048 c 9.194013,-6.051212 20.885332,-5.985204 30.036572,0.169584 8.01437,5.390173 12.69504,15.032205 11.86818,24.448074 -0.58842,6.700744 -3.2855,12.529124 -7.94259,17.163934 -3.98817,3.96909 -8.90862,6.52037 -14.46522,7.50029 -1.952673,0.34436 -5.707664,0.48452 -7.413289,0.27671 z m 4.46281,-11.26508 c 0.930585,-0.2585 1.087686,-0.57112 1.171286,-2.33078 l 0.07413,-1.56039 0.963727,-0.33338 c 0.530056,-0.18335 1.197246,-0.4364 1.482656,-0.56232 l 0.51893,-0.22895 1.13204,1.10021 c 1.08965,1.05903 1.15875,1.10022 1.8459,1.10022 0.71008,0 0.72239,-0.009 2.31515,-1.60127 1.59199,-1.592 1.60127,-1.6054 1.60127,-2.31392 0,-0.67947 -0.0474,-0.76197 -1.01886,-1.771778 l -1.01886,-1.059124 0.55355,-1.136725 c 0.30444,-0.625197 0.58988,-1.275713 0.63431,-1.44559 0.0752,-0.287484 0.18535,-0.308866 1.5915,-0.308866 1.64923,0 2.20761,-0.188592 2.50757,-0.846941 0.20612,-0.452386 0.21297,-4.561092 0.008,-4.943633 -0.28663,-0.535566 -0.93512,-0.733116 -2.4066,-0.733116 h -1.38786 l -0.18172,-0.709063 c -0.1,-0.389986 -0.34774,-1.067372 -0.55063,-1.505304 l -0.36891,-0.796242 1.11567,-1.146451 c 1.07549,-1.105173 1.11566,-1.172155 1.11566,-1.860326 0,-0.71008 -0.009,-0.722389 -1.60127,-2.315145 -1.59199,-1.591994 -1.6054,-1.601269 -2.31392,-1.601269 -0.68136,0 -0.75952,0.04545 -1.78,1.034952 -1.04832,1.016503 -1.07356,1.030602 -1.4158,0.790888 -0.19165,-0.134236 -0.82179,-0.42796 -1.4003,-0.652719 l -1.051849,-0.408655 -0.07413,-1.633007 c -0.07076,-1.558595 -0.09398,-1.653709 -0.509603,-2.087289 l -0.435469,-0.454281 h -2.336245 c -2.254679,0 -2.350767,0.01247 -2.752242,0.357259 -0.396667,0.340659 -0.419442,0.430959 -0.490131,1.943294 l -0.07413,1.586034 -1.186125,0.398988 c -0.652369,0.219443 -1.319565,0.474514 -1.482657,0.566821 -0.261357,0.147926 -0.430811,0.03717 -1.428564,-0.933757 -1.117214,-1.087172 -1.142254,-1.101591 -1.912801,-1.101591 h -0.780767 l -1.513322,1.519723 c -2.075153,2.083928 -2.129768,2.591299 -0.457358,4.248842 l 0.955541,0.947049 -0.416464,0.756566 c -0.229055,0.41611 -0.533384,1.073483 -0.676287,1.460827 l -0.259822,0.704262 h -1.455537 c -2.394511,0 -2.690824,0.288785 -2.778802,2.708199 -0.07275,2.000624 0.0478,2.821542 0.489947,3.336406 0.328904,0.382997 0.433354,0.408972 1.926531,0.479085 l 1.578773,0.07413 0.367259,1.092294 c 0.201993,0.600762 0.461054,1.273672 0.575692,1.495357 0.204239,0.394957 0.187669,0.423671 -0.82362,1.42721 -1.757284,1.743826 -1.715346,2.219796 0.381084,4.325086 l 1.513323,1.51972 h 0.779543 c 0.763948,0 0.800834,-0.0206 1.843902,-1.03205 l 1.064359,-1.03205 0.439562,0.29046 c 0.241759,0.15975 0.889919,0.46792 1.440355,0.68481 l 1.000794,0.39435 5.54e-4,1.4963 c 6.48e-4,1.75094 0.249088,2.35284 1.068725,2.58922 0.658114,0.1898 3.619211,0.20184 4.283125,0.0174 z"
     id="path4" /></svg>
