<?xml version="1.0" encoding="UTF-8" standalone="no"?>
<svg
   shape-rendering="geometricPrecision"
   text-rendering="geometricPrecision"
   image-rendering="optimizeQuality"
   fill-rule="evenodd"
   clip-rule="evenodd"
   viewBox="0 0 512 486.46"
   version="1.1"
   id="svg1"
   sodipodi:docname="data-processing-1.svg"
   inkscape:version="1.3.2 (091e20e, 2023-11-25, custom)"
   xmlns:inkscape="http://www.inkscape.org/namespaces/inkscape"
   xmlns:sodipodi="http://sodipodi.sourceforge.net/DTD/sodipodi-0.dtd"
   xmlns="http://www.w3.org/2000/svg"
   xmlns:svg="http://www.w3.org/2000/svg">
  <defs
     id="defs1" />
  <sodipodi:namedview
     id="namedview1"
     pagecolor="#ffffff"
     bordercolor="#000000"
     borderopacity="0.25"
     inkscape:showpageshadow="2"
     inkscape:pageopacity="0.0"
     inkscape:pagecheckerboard="0"
     inkscape:deskcolor="#d1d1d1"
     inkscape:zoom="1.6712577"
     inkscape:cx="256.09456"
     inkscape:cy="243.23"
     inkscape:window-width="1920"
     inkscape:window-height="1009"
     inkscape:window-x="-8"
     inkscape:window-y="-8"
     inkscape:window-maximized="1"
     inkscape:current-layer="svg1" />
  <path
     d="M70.61 106.63c70.08 23.44 184.92 23.44 255 0 28.41-9.5 45.98-20.99 45.98-32.21 0-11.22-17.57-22.71-45.98-32.21-70.61-23.45-184.38-23.42-255 0-60.22 20.13-61.9 43.74 0 64.42zm303.38 275.91c4.1.54 6.99 4.42 6.45 8.65-.53 4.22-4.3 7.2-8.39 6.65l-8.5-1.14c4.38 7.26 10.16 12.55 16.58 15.91a39.648 39.648 0 0 0 21.62 4.42c7.33-.58 14.53-3.2 20.66-7.79 8.06-6.03 14.37-15.53 16.93-28.37.82-4.18 4.78-6.87 8.82-6.02 4.05.85 6.66 4.93 5.84 9.1-3.38 16.97-11.87 29.65-22.78 37.81a54.425 54.425 0 0 1-28.35 10.7c-10.04.8-20.3-1.19-29.55-6.05-8.25-4.33-15.7-10.92-21.44-19.82l-1.42 6.54c-.89 4.16-4.88 6.79-8.92 5.87-4.03-.91-6.58-5.03-5.69-9.19l5.26-24.27c.7-4.04 4.37-6.84 8.35-6.31l24.53 3.31zm73.42-57.75c.89-4.16 4.89-6.78 8.92-5.87 4.03.92 6.58 5.04 5.69 9.2l-5.38 24.82c-.85 3.96-4.54 6.54-8.37 5.97l-24.18-3.23c-4.09-.53-7-4.4-6.48-8.62.51-4.23 4.26-7.21 8.36-6.68l8.21 1.09c-4.15-7.06-9.68-12.27-15.85-15.69l-.37-.19c-6.59-3.57-13.97-5.13-21.24-4.73-7.23.39-14.38 2.77-20.56 7.06-8.58 5.96-15.35 15.71-18.03 29.16-.83 4.17-4.78 6.87-8.83 6.02-4.05-.86-6.66-4.93-5.84-9.11 3.56-17.8 12.69-30.83 24.31-38.9a54.422 54.422 0 0 1 28.18-9.66c9.89-.55 19.95 1.6 28.99 6.49l.42.25c7.95 4.39 15.08 10.89 20.56 19.52l1.49-6.9zm-5.79-136.65c-1.04-.94-2.5-1.57-3.96-1.57-.31 0-.63 0-.94.11H299.01c-7.22 0-13.13 5.91-13.13 13.14v273.43c0 7.24 5.89 13.13 13.13 13.13h199.85c7.24 0 13.14-5.89 13.14-13.13V263.21c0-2.66-.3-4.46-1.78-5.94l-67.87-68.72c-.21-.2-.31-.3-.52-.41h-.21zm-18.46 15.73v47.34c0 13.72 13.24 24.7 25.03 24.7h46.75v191.93c.01.61-.55 1.45-1.36 1.35H304.32c-.73 0-1.35-.66-1.35-1.35V205.22c0-.74.62-1.35 1.35-1.35h118.84zm17.92 48.41v-43.06l48.48 49.1h-42.43c-3.29 0-6.05-2.74-6.05-6.04zM24.91 196.09c2.24 10.47 19.3 21.02 45.74 29.85 52.85 17.68 121.85 20.52 177.75 15.14v24.79c-58.75 5.47-129.88 2.02-185.47-16.55A155.626 155.626 0 0 1 25 231.43l-.01 73.87c2.23 10.47 19.3 21.03 45.74 29.86 53.11 17.7 121.55 20.44 177.67 15.18v24.67c-58.94 5.33-129.72 2.07-185.51-16.63-13.39-4.19-26.18-10.23-37.93-17.85v73.87c2.23 10.47 19.3 21.02 45.74 29.85 52.91 17.64 121.77 20.53 177.71 15.14v19.18c0 1.85 0 3.69.27 5.54-58.85 5.44-130.07 2.07-185.75-16.6C44.53 461.39.16 441.23.16 417.1v-7.84C.05 299.23 0 184.46 0 74.62c0-23.23 24.01-42.73 62.77-55.71 75.59-25.2 195.11-25.24 270.69.04 34.95 11.69 58.41 29.03 62.3 49.39.46 1.3.7 2.67.7 4.05v74.16h-24.75v-34.74c-11.86 7.72-24.78 13.84-38.26 18.08-75.23 25.39-195.39 25.15-270.68 0a155.164 155.164 0 0 1-37.93-17.86l-.01 84.06h.08z"
     id="path1" />
  <path
     style="fill:#ffffff;stroke:#ffffff;stroke-width:0.598352"
     d="m 169.03438,485.47174 c -16.65185,-1.11832 -23.0686,-1.67584 -33.88561,-2.94416 C 100.35794,478.44826 69.524335,470.85756 47.26979,460.89327 23.74975,450.36237 7.2589434,437.20635 1.962758,424.74828 L 0.59835177,421.53882 V 245.02505 C 0.59835177,73.522959 0.63044658,68.417839 1.728746,65.220343 6.517348,51.279211 17.820598,40.07762 37.190022,30.077999 70.467858,12.898049 122.93089,2.2553896 182.19811,0.66163579 287.08664,-2.1589199 374.68416,22.568293 392.45144,60.012385 c 3.90647,8.2328 3.95661,8.859538 3.95661,49.454525 v 36.53092 H 384.14184 371.87563 V 128.70127 111.4047 l -7.46588,4.35692 c -27.46551,16.02827 -69.37745,26.57586 -124.17151,31.24911 -15.37855,1.3116 -65.73625,1.50685 -79.87996,0.30971 -38.38304,-3.24878 -63.324895,-7.53562 -90.051947,-15.47752 -15.897819,-4.72401 -29.113136,-10.30549 -40.035485,-16.90894 -2.767548,-1.67321 -5.123558,-3.0422 -5.235578,-3.0422 -0.112019,0 -0.203671,19.2627 -0.203671,42.80599 0,42.36529 0.01299,42.83146 1.262171,45.28005 7.316099,14.34074 45.684461,30.05232 92.37988,37.82894 22.08695,3.67834 41.22948,5.182 70.60551,5.54611 22.93721,0.28431 33.57401,0.002 53.63262,-1.42139 l 5.30503,-0.37656 v 11.98693 11.98693 l -3.7397,0.37152 c -27.11278,2.69356 -70.44609,2.44352 -100.37351,-0.57917 C 93.665861,260.24708 51.002645,248.10923 26.477066,231.9128 l -1.645467,-1.08665 v 37.78487 37.78487 l 1.430775,2.8235 c 6.704335,13.23037 40.137249,27.83078 82.338476,35.95783 15.63349,3.01068 32.59358,5.16257 53.2533,6.75675 18.8269,1.45276 70.18555,0.78837 83.61966,-1.08171 l 2.543,-0.354 v 11.98743 11.98744 l -1.64547,0.32752 c -9.1889,1.829 -67.91662,2.55619 -86.31224,1.06875 -38.66877,-3.1267 -67.096655,-8.22465 -94.240405,-16.90006 -13.86055,-4.42997 -25.784852,-9.69285 -35.969849,-15.87556 -2.384341,-1.44739 -4.488634,-2.63162 -4.676206,-2.63162 -0.187573,0 -0.341041,16.87826 -0.341041,37.50725 0,37.03761 0.01594,37.54018 1.273429,40.1378 6.938239,14.33249 45.177073,30.12938 91.471092,37.78775 10.7445,1.77745 24.58405,3.47869 37.84109,4.65167 20.14231,1.78218 81.84776,1.28269 91.22972,-0.73848 l 1.32271,-0.28495 0.17317,12.2013 0.17318,12.20129 -5.38517,0.38453 c -17.92381,1.27987 -25.75012,1.51737 -47.26979,1.43446 -13.16374,-0.0507 -25.14573,-0.17359 -26.62665,-0.27304 z m 69.4088,-362.48166 c 37.58033,-3.09942 67.24055,-8.8675 93.0437,-18.09436 25.58928,-9.150395 40.35862,-20.288761 40.3829,-30.454943 0.0135,-5.643768 -5.0962,-12.298487 -13.75624,-17.915801 C 334.62761,41.290905 291.73237,30.328929 237.54565,25.713577 225.19841,24.661901 185.4561,24.284732 170.53026,25.077577 113.55458,28.104063 63.61186,39.98357 37.769418,56.656423 c -14.37659,9.27539 -17.022273,19.979628 -7.333027,29.66887 6.633266,6.633268 19.74645,13.545793 36.919189,19.461707 28.575611,9.84413 61.74067,15.63546 103.47385,18.06874 13.26144,0.77322 54.07875,0.25063 67.61375,-0.86566 z"
     id="path2" />
  <path
     style="fill:#ffffff;stroke:#ffffff;stroke-width:0.598352"
     d="m 293.79072,484.87185 c -2.78714,-1.47108 -5.13177,-3.86914 -6.345,-6.48961 -1.06857,-2.30798 -1.10811,-7.36927 -1.10811,-141.80937 0,-133.57252 0.0457,-139.51649 1.08963,-141.8145 1.15555,-2.54364 4.55472,-5.88963 7.17789,-7.06558 2.15292,-0.96515 141.12776,-1.3796 144.38695,-0.4306 1.76821,0.51487 8.92718,7.45141 36.79864,35.65531 25.15813,25.45821 34.80968,35.60125 35.35928,37.1599 0.60052,1.70303 0.72355,24.18145 0.59835,109.3268 l -0.15758,107.18299 -1.67855,2.85557 c -0.9232,1.57056 -2.78831,3.59 -4.1447,4.48763 l -2.46615,1.63207 -103.8578,0.12842 c -93.75439,0.11593 -104.03242,0.0363 -105.65285,-0.81903 z m 200.39891,-15.5289 c 0.85764,-0.32911 0.94646,-9.42594 0.94646,-96.93299 v -96.56979 h -23.55322 c -13.40079,0 -24.94249,-0.26152 -26.77625,-0.60673 -1.77265,-0.33369 -4.64943,-1.30216 -6.39283,-2.15216 -3.89095,-1.89704 -9.68206,-7.16283 -11.74076,-10.67573 -3.13171,-5.34386 -3.33915,-7.47223 -3.33915,-34.26006 V 203.4396 h -59.71551 c -45.64759,0 -59.88466,0.16916 -60.43353,0.71802 -1.04519,1.0452 -1.04519,263.7853 0,264.8305 0.55241,0.55241 22.55364,0.71802 95.38817,0.71802 52.06859,0 95.09606,-0.16343 95.61662,-0.36319 z M 483.87329,252.05568 c -3.30605,-3.53775 -14.38242,-14.77928 -24.61414,-24.98118 l -18.60315,-18.54891 0.16463,23.23574 0.16463,23.23574 1.95408,1.74544 1.95408,1.74546 h 22.49543 22.49543 z"
     id="path3" />
  <path
     style="fill:#ffffff;stroke:#ffffff;stroke-width:0.598352"
     d="m 393.41629,431.97749 c -6.60176,-0.62713 -11.52733,-2.0687 -18.34256,-5.36834 -7.32927,-3.5485 -13.78753,-8.60576 -18.48714,-14.47667 -1.9177,-2.39566 -3.81877,-4.72921 -4.22459,-5.18567 -0.60121,-0.67622 -0.87001,-0.15819 -1.45149,2.7974 -0.89779,4.56341 -2.39732,7.05374 -4.99252,8.29131 -3.87621,1.84843 -8.61806,-0.57176 -9.71964,-4.96079 -0.49359,-1.96664 5.08137,-27.88644 6.49953,-30.21842 0.59478,-0.97803 2.0234,-2.17183 3.17472,-2.65288 1.90774,-0.7971 3.29891,-0.71146 15.69363,0.96614 8.20064,1.10994 14.14619,2.19708 14.97519,2.73821 1.78396,1.16447 3.70605,4.33979 3.7089,6.12715 0.004,2.2629 -1.66748,5.14353 -3.67005,6.32648 -1.60431,0.94769 -2.62384,1.04126 -7.46973,0.68555 -3.08651,-0.22657 -5.61184,-0.24226 -5.61184,-0.0349 0,1.08934 4.05812,5.99752 8.01101,9.68908 7.66379,7.15714 16.28903,10.52532 26.99257,10.54066 7.02885,0.0101 11.95995,-1.10733 17.95055,-4.0677 10.98245,-5.42718 18.39403,-14.93881 22.15949,-28.43832 1.27228,-4.56122 1.98436,-6.06297 3.61531,-7.6246 2.84176,-2.72094 6.00599,-2.72082 8.97531,3.6e-4 2.93293,2.68783 3.17388,5.21897 1.15311,12.11298 -3.2457,11.0729 -8.31598,19.81235 -15.80657,27.24513 -11.43654,11.34829 -27.21232,17.02021 -43.13319,15.50782 z"
     id="path4" />
  <path
     style="fill:#ffffff;stroke:#ffffff;stroke-width:0.598352"
     d="m 348.56063,362.41253 c -1.20053,-0.41043 -2.67344,-1.59059 -3.49847,-2.80311 -1.21965,-1.7925 -1.37574,-2.5684 -1.08339,-5.38517 1.27276,-12.2628 10.83318,-28.73307 21.39693,-36.86169 18.4671,-14.21011 44.1645,-15.39598 63.04716,-2.90947 4.70841,3.11353 12.17974,10.27189 15.00989,14.38113 2.45017,3.55754 2.91023,3.47659 3.55776,-0.62603 1.35598,-8.59116 8.0146,-12.00174 12.79712,-6.55475 2.49851,2.84565 2.41537,4.39748 -1.08587,20.26584 -2.76536,12.53323 -2.98506,13.20463 -4.8731,14.89159 -1.95509,1.74687 -2.03454,1.7623 -7.11112,1.38073 -2.82366,-0.21224 -9.53806,-1.02363 -14.92089,-1.8031 -9.2075,-1.33331 -9.89333,-1.52359 -11.58356,-3.21383 -3.63372,-3.63371 -2.46189,-9.89596 2.21766,-11.8512 1.63207,-0.68193 2.9091,-0.73931 6.12,-0.27503 6.45856,0.93389 6.32337,0.97967 4.82374,-1.6334 -0.70825,-1.2341 -3.46855,-4.41953 -6.134,-7.07874 -8.5494,-8.52939 -17.81363,-12.0225 -30.44209,-11.4783 -5.49736,0.2369 -7.52774,0.60589 -11.52424,2.09439 -13.49499,5.02622 -22.81261,15.74635 -26.62697,30.63491 -1.25139,4.88455 -2.253,6.76666 -4.28169,8.04571 -2.13095,1.34352 -3.58426,1.53869 -5.80487,0.77952 z"
     id="path5" />
</svg>
