<?xml version="1.0" encoding="UTF-8" standalone="no"?>
<svg
   version="1.1"
   id="Layer_1"
   x="0px"
   y="0px"
   viewBox="0 0 115.28 122.88"
   style="enable-background:new 0 0 115.28 122.88"
   xml:space="preserve"
   sodipodi:docname="export-pdf.svg"
   inkscape:version="1.3.2 (091e20e, 2023-11-25, custom)"
   xmlns:inkscape="http://www.inkscape.org/namespaces/inkscape"
   xmlns:sodipodi="http://sodipodi.sourceforge.net/DTD/sodipodi-0.dtd"
   xmlns="http://www.w3.org/2000/svg"
   xmlns:svg="http://www.w3.org/2000/svg"><defs
     id="defs1" /><sodipodi:namedview
     id="namedview1"
     pagecolor="#ffffff"
     bordercolor="#000000"
     borderopacity="0.25"
     inkscape:showpageshadow="2"
     inkscape:pageopacity="0.0"
     inkscape:pagecheckerboard="0"
     inkscape:deskcolor="#d1d1d1"
     inkscape:zoom="6.6162111"
     inkscape:cx="57.585829"
     inkscape:cy="49.348486"
     inkscape:window-width="1920"
     inkscape:window-height="1009"
     inkscape:window-x="-8"
     inkscape:window-y="-8"
     inkscape:window-maximized="1"
     inkscape:current-layer="Layer_1" /><style
     type="text/css"
     id="style1">.st0{fill-rule:evenodd;clip-rule:evenodd;}</style><g
     id="g1"><path
       class="st0"
       d="M25.38,57h64.88V37.34H69.59c-2.17,0-5.19-1.17-6.62-2.6c-1.43-1.43-2.3-4.01-2.3-6.17V7.64l0,0H8.15 c-0.18,0-0.32,0.09-0.41,0.18C7.59,7.92,7.55,8.05,7.55,8.24v106.45c0,0.14,0.09,0.32,0.18,0.41c0.09,0.14,0.28,0.18,0.41,0.18 c22.78,0,58.09,0,81.51,0c0.18,0,0.17-0.09,0.27-0.18c0.14-0.09,0.33-0.28,0.33-0.41v-11.16H25.38c-4.14,0-7.56-3.4-7.56-7.56 V64.55C17.82,60.4,21.22,57,25.38,57L25.38,57z M29.5,67.4h13.19c2.87,0,5.02,0.68,6.46,2.05c1.43,1.37,2.14,3.31,2.14,5.84 c0,2.59-0.78,4.62-2.34,6.08c-1.56,1.46-3.94,2.19-7.14,2.19h-4.35v9.49H29.5V67.4L29.5,67.4z M37.45,78.37h1.95 c1.54,0,2.62-0.27,3.24-0.8c0.62-0.53,0.93-1.21,0.93-2.04c0-0.81-0.27-1.49-0.81-2.05c-0.54-0.56-1.55-0.84-3.05-0.84h-2.27V78.37 L37.45,78.37z M54.99,67.4h11.78c2.32,0,4.2,0.32,5.63,0.94c1.43,0.63,2.61,1.53,3.55,2.71c0.93,1.18,1.61,2.55,2.02,4.11 c0.42,1.56,0.63,3.22,0.63,4.97c0,2.74-0.31,4.87-0.94,6.38c-0.62,1.51-1.49,2.78-2.6,3.8c-1.11,1.02-2.3,1.7-3.57,2.04 c-1.74,0.47-3.31,0.7-4.72,0.7H54.99V67.4L54.99,67.4z M62.9,73.21v14.01h1.95c1.66,0,2.84-0.19,3.55-0.55 c0.7-0.37,1.25-1.01,1.65-1.92c0.4-0.92,0.6-2.4,0.6-4.45c0-2.72-0.44-4.57-1.33-5.58c-0.89-1-2.36-1.5-4.42-1.5H62.9L62.9,73.21z M82.25,67.4h19.6v5.52H90.21v4.48h9.96v5.2h-9.96v10.46h-7.95V67.4L82.25,67.4z M97.79,57h9.93c4.16,0,7.56,3.41,7.56,7.56v31.42 c0,4.15-3.41,7.56-7.56,7.56h-9.93v13.55c0,1.61-0.65,3.04-1.7,4.1c-1.06,1.06-2.49,1.7-4.1,1.7c-29.44,0-56.59,0-86.18,0 c-1.61,0-3.04-0.64-4.1-1.7c-1.06-1.06-1.7-2.49-1.7-4.1V5.85c0-1.61,0.65-3.04,1.7-4.1c1.06-1.06,2.53-1.7,4.1-1.7h58.72 C64.66,0,64.8,0,64.94,0c0.64,0,1.29,0.28,1.75,0.69h0.09c0.09,0.05,0.14,0.09,0.23,0.18l29.99,30.36c0.51,0.51,0.88,1.2,0.88,1.98 c0,0.23-0.05,0.41-0.09,0.65V57L97.79,57z M67.52,27.97V8.94l21.43,21.7H70.19c-0.74,0-1.38-0.32-1.89-0.78 C67.84,29.4,67.52,28.71,67.52,27.97L67.52,27.97z"
       id="path1" /></g><path
     style="fill:#ffffff;stroke:#ffffff;stroke-width:0.151144"
     d="M 4.8593503,122.72145 C 3.1085092,122.42767 1.4302866,121.115 0.6176591,119.40369 L 0.15114391,118.42125 V 61.515571 4.6098892 L 0.499342,3.7481223 C 0.91021777,2.7312324 1.959983,1.5087666 2.8907406,0.96330625 4.3564083,0.10436774 2.4306449,0.15273544 35.25654,0.15040324 l 30.301013,-0.002153 0.655814,0.32752967 c 0.360698,0.18014132 1.321658,1.01132659 2.135467,1.84707849 0.813808,0.8357518 7.65628,7.7742206 15.205492,15.4188206 7.549212,7.644598 13.826589,14.094096 13.949728,14.332219 0.192622,0.372493 0.222506,2.152317 0.214007,12.745724 l -0.0099,12.312775 h 5.568069 c 6.11197,0 6.35198,0.02805 8.08375,0.944857 1.09042,0.577268 2.51102,2.073572 3.04967,3.212187 0.84459,1.785318 0.83231,1.505537 0.83231,18.967974 0,17.494196 0.01,17.273816 -0.84014,19.010904 -0.47851,0.978031 -1.78171,2.415341 -2.74845,3.031271 -0.39257,0.25011 -1.15586,0.60972 -1.6962,0.79913 -0.94053,0.32969 -1.22229,0.3469 -6.60592,0.40353 l -5.623492,0.0592 -0.04441,7.42993 -0.04441,7.42992 -0.465797,0.98287 c -0.846524,1.78623 -2.460913,3.01287 -4.378539,3.32689 -1.104235,0.18082 -86.8562181,0.1715 -87.9352787,-0.01 z m 85.1727317,-7.64879 c 0.25837,-0.23382 0.276403,-0.61819 0.276403,-5.89133 v -5.64118 l -33.06273,-0.0415 c -31.645435,-0.0397 -33.098365,-0.0534 -33.894021,-0.3197 -1.948365,-0.65206 -3.609808,-2.00851 -4.491817,-3.66725 -0.992136,-1.865844 -0.949364,-0.998357 -0.949364,-19.254295 0,-14.384399 0.03043,-16.679159 0.23143,-17.450841 0.674052,-2.587859 2.693502,-4.698173 5.199397,-5.433335 0.740096,-0.217124 4.077821,-0.240842 33.894022,-0.240842 H 90.308485 V 47.239774 37.347161 L 79.312766,37.293251 C 66.936521,37.232581 67.703165,37.300651 65.121109,36.033288 62.935217,34.960384 61.845551,33.588324 61.047096,30.903464 60.803309,30.08372 60.774006,28.985278 60.723652,18.779616 L 60.668284,7.5571954 H 34.256325 c -20.341107,0 -26.4536451,0.041689 -26.5933289,0.1813727 -0.2643065,0.2643066 -0.2643065,107.1385519 0,107.4028619 0.1401753,0.14017 9.4841549,0.18137 41.1370279,0.18137 37.897565,0 40.976294,-0.0187 41.232058,-0.25014 z M 37.559261,88.359333 v -4.745314 l 3.589668,-0.07279 c 3.910652,-0.07931 4.605263,-0.194119 6.27564,-1.037324 1.625169,-0.820382 2.805712,-2.187758 3.450732,-3.996842 0.448539,-1.258011 0.573277,-4.290579 0.23135,-5.624468 -0.717273,-2.798148 -2.33795,-4.422061 -5.185426,-5.195783 -1.114669,-0.302881 -1.623408,-0.32531 -8.853182,-0.39032 l -7.670553,-0.06897 v 12.938567 12.938568 h 4.080886 4.080885 z m 33.024944,4.318183 c 2.573236,-0.617565 4.459419,-1.861339 5.914019,-3.899777 1.409262,-1.974901 1.962061,-3.904676 2.115998,-7.386745 0.341196,-7.717897 -2.503144,-12.456239 -8.256967,-13.755153 -0.945766,-0.213506 -2.315333,-0.268743 -8.274895,-0.333747 l -7.141549,-0.07789 v 12.949587 12.949587 l 7.141549,-0.0597 c 6.679811,-0.05584 7.229501,-0.0808 8.501845,-0.386162 z m 19.72428,-4.787333 v -5.214465 h 4.987749 4.987746 v -2.645019 -2.645018 h -4.987746 -4.987749 v -2.191587 -2.191586 h 5.819041 5.819044 V 70.130773 67.259039 H 92.04664 82.146714 V 80.181843 93.104647 H 86.2276 90.308485 Z M 88.943668,30.568855 c -0.0025,-0.06235 -4.828224,-4.976413 -10.723862,-10.920147 L 67.500464,8.8419186 67.49311,18.708913 c -0.0079,10.604999 -0.01782,10.460574 0.769494,11.213743 0.794627,0.760168 0.607614,0.747325 10.97459,0.753642 5.341048,0.0033 9.708961,-0.0451 9.706474,-0.107443 z"
     id="path2" /><path
     style="fill:#ffffff;stroke:#ffffff;stroke-width:0.151144"
     d="m 62.951438,80.239543 v -6.970491 l 1.927085,0.07004 c 2.277739,0.08279 3.294405,0.398439 4.145965,1.287239 0.704329,0.735129 1.002851,1.344583 1.265426,2.583452 0.256479,1.210109 0.288597,4.881268 0.05382,6.151313 -0.288883,1.562713 -1.02893,2.689805 -2.142007,3.262279 -0.577494,0.297015 -2.66794,0.575072 -4.381208,0.582759 l -0.869077,0.0039 z"
     id="path3" /><path
     style="fill:#ffffff;stroke:#ffffff;stroke-width:0.151144"
     d="m 37.559261,75.478136 v -2.814408 l 1.856123,0.06179 c 2.256346,0.07512 3.138154,0.411663 3.695929,1.410566 0.632225,1.132233 0.33744,2.716391 -0.639706,3.437736 -0.578193,0.426832 -2.002967,0.718721 -3.508234,0.718721 h -1.404112 z"
     id="path4" /></svg>
