<?xml version="1.0" encoding="UTF-8" standalone="no"?>
<svg
   version="1.1"
   id="Layer_1"
   x="0px"
   y="0px"
   viewBox="0 0 107.07 122.88"
   style="enable-background:new 0 0 107.07 122.88"
   xml:space="preserve"
   sodipodi:docname="mw-add-file.svg"
   inkscape:version="1.3.2 (091e20e, 2023-11-25, custom)"
   xmlns:inkscape="http://www.inkscape.org/namespaces/inkscape"
   xmlns:sodipodi="http://sodipodi.sourceforge.net/DTD/sodipodi-0.dtd"
   xmlns="http://www.w3.org/2000/svg"
   xmlns:svg="http://www.w3.org/2000/svg"><defs
     id="defs1" /><sodipodi:namedview
     id="namedview1"
     pagecolor="#ffffff"
     bordercolor="#000000"
     borderopacity="0.25"
     inkscape:showpageshadow="2"
     inkscape:pageopacity="0.0"
     inkscape:pagecheckerboard="0"
     inkscape:deskcolor="#d1d1d1"
     inkscape:zoom="6.6162111"
     inkscape:cx="53.504943"
     inkscape:cy="61.439999"
     inkscape:window-width="1920"
     inkscape:window-height="1009"
     inkscape:window-x="-8"
     inkscape:window-y="-8"
     inkscape:window-maximized="1"
     inkscape:current-layer="Layer_1" /><g
     id="g1"><path
       d="M31.54,86.95c-1.74,0-3.16-1.43-3.16-3.19c0-1.76,1.41-3.19,3.16-3.19h20.5c1.74,0,3.16,1.43,3.16,3.19 c0,1.76-1.41,3.19-3.16,3.19H31.54L31.54,86.95z M31.54,42.27c-1.74,0-3.15-1.41-3.15-3.15c0-1.74,1.41-3.15,3.15-3.15h41.61 c1.74,0,3.15,1.41,3.15,3.15c0,1.74-1.41,3.15-3.15,3.15H31.54L31.54,42.27z M56.85,116.58c1.74,0,3.15,1.41,3.15,3.15 c0,1.74-1.41,3.15-3.15,3.15H7.33c-2.02,0-3.85-0.82-5.18-2.15C0.82,119.4,0,117.57,0,115.55V7.33c0-2.02,0.82-3.85,2.15-5.18 C3.48,0.82,5.31,0,7.33,0h90.02c2.02,0,3.85,0.82,5.18,2.15c1.33,1.33,2.15,3.16,2.15,5.18V72.6c0,1.74-1.41,3.15-3.15,3.15 s-3.15-1.41-3.15-3.15V7.33c0-0.28-0.12-0.54-0.3-0.73c-0.19-0.19-0.45-0.3-0.73-0.3H7.33c-0.28,0-0.54,0.12-0.73,0.3 C6.42,6.8,6.3,7.05,6.3,7.33v108.21c0,0.28,0.12,0.54,0.3,0.73c0.19,0.19,0.45,0.3,0.73,0.3H56.85L56.85,116.58z M83.35,83.7 c0-1.73,1.41-3.14,3.14-3.14c1.73,0,3.14,1.41,3.14,3.14l-0.04,14.36l14.34,0.04c1.73,0,3.14,1.41,3.14,3.14s-1.41,3.14-3.14,3.14 l-14.35-0.04l-0.04,14.34c0,1.73-1.41,3.14-3.14,3.14c-1.73,0-3.14-1.41-3.14-3.14l0.04-14.35l-14.34-0.04 c-1.73,0-3.14-1.41-3.14-3.14c0-1.73,1.41-3.14,3.14-3.14l14.36,0.04L83.35,83.7L83.35,83.7z M31.54,64.59 c-1.74,0-3.15-1.41-3.15-3.15c0-1.74,1.41-3.15,3.15-3.15h41.61c1.74,0,3.15,1.41,3.15,3.15c0,1.74-1.41,3.15-3.15,3.15H31.54 L31.54,64.59z"
       id="path1" /></g><path
     style="fill:#ffffff;stroke:#ffffff;stroke-width:0.151144"
     d="m 30.549927,86.6857 c -2.457563,-0.875995 -2.744282,-4.340598 -0.466003,-5.63101 l 0.598289,-0.33887 h 11.109078 11.109077 l 0.598289,0.33887 c 1.321341,0.748405 1.916631,2.393367 1.377243,3.805734 -0.30974,0.811043 -1.219985,1.667953 -2.00262,1.885278 -0.382772,0.10629 -4.144856,0.158407 -11.157561,0.154568 C 33.109895,86.89557 31.02635,86.85552 30.549927,86.6857 Z"
     id="path2" /><path
     style="fill:#ffffff;stroke:#ffffff;stroke-width:0.151144"
     d="m 85.09402,121.42804 c -0.710725,-0.38776 -1.150039,-0.84003 -1.452487,-1.49535 -0.259283,-0.56179 -0.279264,-1.13669 -0.282349,-8.12398 l -0.0033,-7.51941 H 76.25956 c -4.645301,0 -7.36755,-0.0582 -7.881591,-0.16841 -0.94299,-0.20224 -1.993169,-1.08629 -2.263516,-1.90545 -0.448152,-1.35791 0.01958,-2.761697 1.195269,-3.587329 l 0.655239,-0.460143 7.695462,-0.04179 7.695461,-0.04179 V 90.99207 c 0,-4.617895 0.05842,-7.364718 0.167445,-7.873084 0.19196,-0.89508 0.974127,-1.877711 1.754785,-2.204525 0.267501,-0.111985 0.845626,-0.202491 1.284724,-0.201124 1.01145,0.0031 1.832775,0.449557 2.454657,1.334155 l 0.459718,0.653928 0.04305,7.69549 0.04305,7.69549 6.456135,0.01074 c 3.550874,0.0059 7.052422,0.06297 7.781212,0.126796 1.15473,0.101134 1.39762,0.174467 1.8893,0.570416 1.34581,1.083773 1.65192,2.736078 0.75315,4.065168 -0.30148,0.44581 -0.74853,0.86109 -1.15735,1.07509 l -0.66614,0.34869 h -7.533418 -7.533423 l -0.01598,4.5721 c -0.0088,2.51466 -0.0598,6.00588 -0.113358,7.75828 -0.09706,3.17583 -0.09873,3.18793 -0.51268,3.73027 -0.711486,0.93214 -1.271231,1.23407 -2.37748,1.2824 -0.694608,0.0303 -1.119762,-0.03 -1.43925,-0.20431 z"
     id="path3" /><path
     style="fill:#ffffff;stroke:#ffffff;stroke-width:0.151144"
     d="m 6.499188,122.72916 c -3.0010121,-0.37091 -5.4121076,-2.52842 -6.19815951,-5.54628 -0.1978428,-0.75956 -0.22545654,-7.58691 -0.22545654,-55.742881 0,-48.419657 0.02681875,-54.9802648 0.2279068,-55.752294 C 0.96997327,3.1288598 2.6765352,1.2924999 5.1980565,0.42085459 L 6.1969002,0.07557195 H 52.295792 c 44.227829,0 46.1357,0.01121822 47.005756,0.27639223 2.423172,0.73853102 4.357132,2.68773792 5.007572,5.04706792 0.27192,0.9863493 0.28246,2.2739078 0.28246,34.5029599 v 33.478375 l -0.41966,0.713917 c -0.43903,0.746865 -1.30886,1.367448 -2.16671,1.545853 -1.15298,0.239777 -2.717019,-0.624666 -3.248867,-1.795646 -0.269082,-0.592445 -0.279571,-1.844776 -0.282768,-33.760439 L 98.470256,6.9388794 98.099266,6.5678898 97.728277,6.1969002 H 52.398617 7.0689578 L 6.6707151,6.5101581 6.2724722,6.8234159 V 61.427543 116.03167 l 0.3181363,0.28793 c 0.3094944,0.2801 1.0105539,0.28998 25.8078225,0.3635 l 25.489686,0.0756 0.556651,0.37652 c 1.13073,0.76483 1.67392,2.09433 1.350195,3.3047 -0.244147,0.91284 -0.661818,1.45495 -1.501078,1.94831 l -0.708056,0.41623 -25.089889,0.0184 c -13.799439,0.0101 -25.4979771,-0.032 -25.996752,-0.0937 z"
     id="path4" /><path
     style="fill:#ffffff;stroke:#ffffff;stroke-width:0.151144"
     d="m 30.551816,64.317051 c -1.156391,-0.412241 -2.05455,-1.669963 -2.05455,-2.877052 0,-1.262503 1.031956,-2.616489 2.242659,-2.942497 0.403523,-0.108658 7.336307,-0.146591 21.880065,-0.119718 21.199815,0.03917 21.29189,0.04065 21.885902,0.352263 1.295036,0.679355 1.965287,2.143374 1.591868,3.477095 -0.2568,0.917195 -1.183924,1.885218 -2.054781,2.145424 -0.967916,0.289207 -42.675817,0.255148 -43.491163,-0.03551 z"
     id="path5" /><path
     style="fill:#ffffff;stroke:#ffffff;stroke-width:0.151144"
     d="m 30.139196,41.817473 c -2.213255,-1.168462 -2.1733,-4.235769 0.07081,-5.436205 l 0.623349,-0.333446 h 21.538007 21.538007 l 0.713916,0.419663 c 0.777841,0.45724 1.389859,1.338899 1.55429,2.239075 0.219221,1.20012 -0.594203,2.626805 -1.813477,3.18071 -0.576815,0.262041 -1.635884,0.275401 -22.082322,0.278561 l -21.476448,0.0033 z"
     id="path6" /></svg>
