<?xml version="1.0" encoding="UTF-8" standalone="no"?>
<svg
   version="1.1"
   id="Layer_1"
   x="0px"
   y="0px"
   viewBox="0 0 103.12 122.88"
   style="enable-background:new 0 0 103.12 122.88"
   xml:space="preserve"
   sodipodi:docname="mw-data-analysis.svg"
   inkscape:version="1.3.2 (091e20e, 2023-11-25, custom)"
   xmlns:inkscape="http://www.inkscape.org/namespaces/inkscape"
   xmlns:sodipodi="http://sodipodi.sourceforge.net/DTD/sodipodi-0.dtd"
   xmlns="http://www.w3.org/2000/svg"
   xmlns:svg="http://www.w3.org/2000/svg"><defs
     id="defs1" /><sodipodi:namedview
     id="namedview1"
     pagecolor="#ffffff"
     bordercolor="#000000"
     borderopacity="0.25"
     inkscape:showpageshadow="2"
     inkscape:pageopacity="0.0"
     inkscape:pagecheckerboard="0"
     inkscape:deskcolor="#d1d1d1"
     inkscape:zoom="6.6162111"
     inkscape:cx="51.540073"
     inkscape:cy="61.439999"
     inkscape:window-width="1920"
     inkscape:window-height="1009"
     inkscape:window-x="-8"
     inkscape:window-y="-8"
     inkscape:window-maximized="1"
     inkscape:current-layer="Layer_1" /><style
     type="text/css"
     id="style1">.st0{fill-rule:evenodd;clip-rule:evenodd;}</style><g
     id="g1"><path
       class="st0"
       d="M72.17,35.82l16.44,0.06c-0.02,4.38-1.78,8.58-4.9,11.65c-0.74,0.73-1.54,1.38-2.4,1.96L72.17,35.82 L72.17,35.82z M1.18,122.01C0.49,121.69,0,121,0,120.18V2c0-1.1,0.89-2,2-2H21.4h79.72c1.1,0,2,0.89,2,2v107.73 c0,0.11-0.01,0.21-0.02,0.31c-0.28,3.93-1.56,6.99-3.86,9.18c-2.3,2.18-5.53,3.4-9.72,3.64c-0.09,0.01-0.17,0.02-0.26,0.02H2.83 C2.15,122.88,1.54,122.53,1.18,122.01L1.18,122.01z M35.5,34.9h5.01c0.27,0,0.48,0.22,0.48,0.48v9.85c0,0.27-0.22,0.48-0.48,0.48 H35.5c-0.27,0-0.48-0.22-0.48-0.48v-9.85C35.02,35.12,35.23,34.9,35.5,34.9L35.5,34.9z M16.85,28.87h5.01 c0.27,0,0.48,0.22,0.48,0.48v15.89c0,0.27-0.22,0.48-0.48,0.48h-5.01c-0.27,0-0.48-0.22-0.48-0.48V29.35 C16.36,29.09,16.58,28.87,16.85,28.87L16.85,28.87L16.85,28.87z M26.18,25.48h5.01c0.27,0,0.48,0.22,0.48,0.48v19.28 c0,0.27-0.22,0.48-0.48,0.48h-5.01c-0.27,0-0.48-0.22-0.48-0.48V25.96C25.69,25.69,25.91,25.48,26.18,25.48L26.18,25.48z M99.13,109.68V3.99H21.4H3.99v114.9h85.26l0.04,0c3.21-0.18,5.61-1.04,7.2-2.55C98.06,114.85,98.93,112.62,99.13,109.68 L99.13,109.68z M16.82,106.64c-1.09,0-1.98-0.89-1.98-2c0-1.1,0.88-1.99,1.98-1.99h70.5c1.09,0,1.98,0.89,1.98,1.99 c0,1.1-0.88,2-1.98,2H16.82L16.82,106.64z M17.14,92.08c-1.09,0-1.98-0.89-1.98-2c0-1.1,0.88-2,1.98-2h70c1.09,0,1.98,0.89,1.98,2 c0,1.1-0.88,2-1.98,2H17.14L17.14,92.08z M16.82,77.52c-1.09,0-1.98-0.89-1.98-2c0-1.1,0.88-1.99,1.98-1.99h30.13 c1.09,0,1.98,0.89,1.98,1.99c0,1.1-0.88,2-1.98,2H16.82L16.82,77.52z M54.64,77.52c-1.09,0-1.98-0.89-1.98-2 c0-1.1,0.88-1.99,1.98-1.99h32.5c1.09,0,1.98,0.89,1.98,1.99c0,1.1-0.88,2-1.98,2H54.64L54.64,77.52z M16.82,64.53 c-1.09,0-1.98-0.89-1.98-2c0-1.1,0.88-2,1.98-2h24.84c1.09,0,1.98,0.89,1.98,2c0,1.1-0.88,2-1.98,2H16.82L16.82,64.53z M16.82,13.91c-1.09,0-1.98-0.89-1.98-2s0.88-2,1.98-2h14.84c1.09,0,1.98,0.89,1.98,2s-0.88,2-1.98,2H16.82L16.82,13.91z M70.49,32.56l-0.88-17.57c-0.02-0.35,0.25-0.64,0.6-0.66c0.1-0.01,0.22-0.01,0.35-0.01c0.11,0,0.23-0.01,0.35-0.01 c4.83-0.05,9.25,1.78,12.56,4.82c3.31,3.05,5.5,7.31,5.84,12.13c0.02,0.35-0.24,0.65-0.58,0.67l-17.58,1.26 c-0.35,0.02-0.65-0.24-0.67-0.58C70.49,32.59,70.49,32.57,70.49,32.56L70.49,32.56z M70.9,15.57l0.82,16.32l16.3-1.16 c-0.46-4.23-2.45-7.96-5.38-10.66c-3.08-2.84-7.21-4.54-11.7-4.49L70.9,15.57L70.9,15.57z M68.52,35.06l8.81,15.26 c-2.68,1.55-5.72,2.36-8.81,2.36c-9.73,0-17.62-7.89-17.62-17.62c0-8.74,6.41-16.17,15.06-17.43L68.52,35.06L68.52,35.06z"
       id="path1" /></g><path
     style="fill:#ffffff;stroke:#ffffff;stroke-width:0.151144"
     d="M 2.308975,122.66729 C 1.6192067,122.41929 0.69535643,121.64241 0.34007379,121.01161 0.0894083,120.56655 0.0756015,117.43066 0.07613695,61.064497 0.07669442,2.3773326 0.08061526,1.580593 0.371209,1.1040056 0.5331879,0.83835261 0.85301252,0.49827881 1.0819304,0.34828605 1.4809822,0.08681724 3.5613359,0.07557195 51.533425,0.07557195 c 49.161095,0 50.043705,0.005096 50.517335,0.29167431 0.26512,0.16042087 0.59131,0.50049466 0.72485,0.75571954 0.22193,0.4241396 0.23897,5.2016893 0.1981,55.5560002 l -0.0447,55.091954 -0.39979,1.44548 c -0.37519,1.35652 -1.23716,3.27451 -1.92978,4.29396 -0.627748,0.92398 -2.308944,2.45493 -3.446614,3.13858 -1.293802,0.77749 -3.20973,1.47108 -5.184754,1.87696 -1.198667,0.24633 -4.12675,0.266 -45.189022,0.30356 -36.372303,0.0333 -44.0038817,0.005 -44.470065,-0.16217 z m 90.076279,-4.1319 c 3.491149,-0.94066 5.479364,-2.85441 6.428788,-6.18801 l 0.336362,-1.18104 0.03945,-53.618297 0.03945,-53.6183014 H 51.541732 3.8541697 V 61.441776 118.95381 l 43.6428033,-0.0414 43.642804,-0.0414 z"
     id="path2" /><path
     style="fill:#ffffff;stroke:#ffffff;stroke-width:0.151144"
     d="m 15.955002,106.28028 c -0.523483,-0.28075 -1.067327,-1.08472 -1.067327,-1.57783 0,-0.54642 0.447783,-1.32104 0.935554,-1.61843 0.49809,-0.30368 0.659139,-0.30503 36.245847,-0.30503 35.58671,0 35.747758,0.001 36.245848,0.30503 1.255995,0.76576 1.123072,2.70347 -0.224065,3.26634 -0.411772,0.17205 -6.368196,0.2061 -36.057072,0.2061 -34.154535,0 -35.584224,-0.011 -36.078785,-0.27618 z"
     id="path3" /><path
     style="fill:#ffffff;stroke:#ffffff;stroke-width:0.151144"
     d="m 16.409858,91.781903 c -1.522418,-0.776299 -1.522418,-2.623968 0,-3.400268 0.489014,-0.249354 2.505532,-0.264267 35.73479,-0.264267 33.229259,0 35.245776,0.01491 35.734791,0.264267 0.733279,0.373909 1.109972,0.950885 1.109972,1.700134 0,0.74925 -0.376693,1.326226 -1.109972,1.700134 -0.489015,0.249355 -2.505532,0.264267 -35.734791,0.264267 -33.229258,0 -35.245776,-0.01491 -35.73479,-0.264267 z"
     id="path4" /><path
     style="fill:#ffffff;stroke:#ffffff;stroke-width:0.151144"
     d="m 15.564629,76.883712 c -0.95744,-0.957439 -0.77471,-2.375608 0.386326,-2.998278 0.494406,-0.265153 1.249003,-0.278351 15.915209,-0.278351 17.441614,0 16.201698,-0.08826 16.76872,1.19359 0.275782,0.623451 0.284302,0.741743 0.09296,1.290681 -0.131418,0.377023 -0.403814,0.734089 -0.724216,0.949326 l -0.513571,0.345001 h -15.71173 -15.71173 z"
     id="path5" /><path
     style="fill:#ffffff;stroke:#ffffff;stroke-width:0.151144"
     d="m 53.715528,77.159432 c -0.682219,-0.370805 -0.957609,-0.979372 -0.907462,-2.005343 0.0092,-0.188262 0.249545,-0.59635 0.534098,-0.906864 l 0.517368,-0.56457 16.799445,-0.03973 c 18.935974,-0.04479 17.543641,-0.130182 18.145393,1.112872 0.294754,0.608879 0.305242,0.722813 0.120039,1.303935 -0.135537,0.425279 -0.373501,0.751207 -0.716504,0.981357 l -0.51357,0.344597 -16.792407,-0.0061 c -14.194068,-0.0051 -16.853372,-0.03919 -17.1864,-0.220197 z"
     id="path6" /><path
     style="fill:#ffffff;stroke:#ffffff;stroke-width:0.151144"
     d="m 15.564629,63.885336 c -0.95744,-0.95744 -0.77471,-2.375608 0.386326,-2.998278 0.492388,-0.264071 1.173181,-0.278351 13.270191,-0.278351 14.457338,0 13.562551,-0.07498 14.119102,1.183193 0.253979,0.574161 0.273258,0.761908 0.128014,1.246683 -0.09405,0.313899 -0.379026,0.745774 -0.633291,0.959723 l -0.462298,0.388999 H 29.219635 16.066597 Z"
     id="path7" /><path
     style="fill:#ffffff;stroke:#ffffff;stroke-width:0.151144"
     d="m 25.870799,45.544697 c -0.05542,-0.05542 -0.100763,-4.537116 -0.100763,-9.959327 0,-8.850292 0.02445,-9.867947 0.239078,-9.950307 0.131493,-0.05046 1.387373,-0.09174 2.790844,-0.09174 2.368168,0 2.563025,0.02103 2.708229,0.292352 0.216141,0.403863 0.216141,19.113574 0,19.517437 -0.145692,0.272228 -0.341628,0.292351 -2.846544,0.292351 -1.479545,0 -2.735425,-0.04534 -2.790844,-0.100763 z"
     id="path8" /><path
     style="fill:#ffffff;stroke:#ffffff;stroke-width:0.151144"
     d="m 16.580487,45.464088 c -0.136528,-0.136527 -0.181373,-2.171932 -0.181373,-8.232026 0,-7.804755 0.0089,-8.055431 0.292351,-8.207114 0.384118,-0.205573 4.925792,-0.205573 5.30991,0 0.283422,0.151683 0.292351,0.402359 0.292351,8.207114 0,6.060094 -0.04484,8.095499 -0.181372,8.232026 -0.254868,0.254867 -5.276999,0.254867 -5.531867,0 z"
     id="path9" /><path
     style="fill:#ffffff;stroke:#ffffff;stroke-width:0.151144"
     d="m 35.245021,45.547997 c -0.05723,-0.05723 -0.104062,-2.431958 -0.104062,-5.277165 0,-4.577765 0.02751,-5.183662 0.239077,-5.264847 0.131493,-0.05046 1.34743,-0.09174 2.702084,-0.09174 1.899923,0 2.502256,0.04729 2.634691,0.206868 0.122483,0.147583 0.160273,1.674448 0.131865,5.327822 l -0.03982,5.120955 -2.729886,0.04109 c -1.501437,0.0226 -2.776714,-0.0057 -2.833948,-0.06298 z"
     id="path10" /><path
     style="fill:#ffffff;stroke:#ffffff;stroke-width:0.151144"
     d="m 16.401289,13.753692 c -1.147701,-0.276949 -1.790469,-1.639231 -1.25777,-2.665717 0.591501,-1.1397949 0.368186,-1.1125466 9.11272,-1.1119121 7.45114,5.407e-4 7.807059,0.013241 8.269276,0.2950721 0.670031,0.408544 0.989971,0.957751 0.979973,1.682214 -0.0097,0.699188 -0.298695,1.221131 -0.891438,1.609712 -0.373619,0.244931 -1.027804,0.268686 -8.046307,0.292183 -4.201794,0.01407 -7.876698,-0.03163 -8.166454,-0.101552 z"
     id="path11" /><path
     style="fill:#ffffff;stroke:#ffffff;stroke-width:0.151144"
     d="m 66.049888,52.430537 c -1.488211,-0.214455 -3.536876,-0.854412 -5.037722,-1.573668 -4.831681,-2.31551 -8.250555,-6.532206 -9.583545,-11.819946 -0.481689,-1.91078 -0.485577,-6.017713 -0.0075,-7.911537 1.703718,-6.748845 6.880498,-11.82799 13.46133,-13.207448 0.557082,-0.116774 1.017949,-0.200214 1.024147,-0.185422 0.0062,0.01479 0.58007,3.932727 1.275267,8.706523 l 1.263993,8.67963 4.356548,7.542219 c 2.396101,4.14822 4.356548,7.569997 4.356548,7.60395 0,0.145307 -1.928669,1.017218 -3.170094,1.433133 -2.376851,0.79632 -5.497986,1.08432 -7.938983,0.732566 z"
     id="path12" /><path
     style="fill:#ffffff;stroke:#ffffff;stroke-width:0.151144"
     d="m 76.812768,42.59601 c -2.468206,-3.672297 -4.471264,-6.682059 -4.451241,-6.68836 0.02002,-0.0063 3.658191,0.01091 8.084818,0.03824 l 8.048413,0.0497 v 0.648681 c 0,1.058487 -0.415466,3.125091 -0.916886,4.560762 -0.852028,2.439532 -2.143573,4.450859 -4.023553,6.265892 -1.132635,1.093506 -1.975839,1.801992 -2.14464,1.801992 -0.0601,0 -2.128707,-3.004607 -4.596911,-6.676904 z"
     id="path13" /><path
     style="fill:#ffffff;stroke:#ffffff;stroke-width:0.151144"
     d="m 70.685374,32.836014 c -0.0749,-0.145476 -0.329528,-4.253315 -0.565839,-9.12853 -0.375946,-7.755971 -0.4023,-8.89699 -0.210825,-9.127703 0.194267,-0.234077 0.414123,-0.252625 1.958602,-0.165234 4.787924,0.270911 8.775838,2.044315 12.094189,5.378219 2.778611,2.791634 4.6134,6.454629 5.132624,10.246835 0.18393,1.343347 0.119389,1.669593 -0.351536,1.776967 -0.306414,0.06986 -16.9608,1.283948 -17.612757,1.283948 -0.169552,0 -0.369558,-0.119026 -0.444458,-0.264502 z m 9.496469,-1.472876 c 4.031764,-0.289746 7.45887,-0.52748 7.615791,-0.528297 0.255196,-0.0013 0.275433,-0.08524 0.19172,-0.794989 -0.283611,-2.404559 -1.635111,-5.634988 -3.25238,-7.774012 -2.957813,-3.912051 -7.576512,-6.406575 -12.324434,-6.656333 l -1.647974,-0.08669 0.0899,0.967152 c 0.04945,0.531934 0.244297,4.214857 0.433,8.184274 l 0.343097,7.217122 0.610398,-7.08e-4 c 0.335719,-3.9e-4 3.909114,-0.237773 7.940878,-0.527519 z"
     id="path14" /></svg>
