<?xml version="1.0" encoding="UTF-8" standalone="no"?>
<svg
   version="1.1"
   id="Layer_1"
   x="0px"
   y="0px"
   width="122.881px"
   height="122.88px"
   viewBox="0 0 122.881 122.88"
   enable-background="new 0 0 122.881 122.88"
   xml:space="preserve"
   sodipodi:docname="mw-exit.svg"
   inkscape:version="1.3.2 (091e20e, 2023-11-25, custom)"
   xmlns:inkscape="http://www.inkscape.org/namespaces/inkscape"
   xmlns:sodipodi="http://sodipodi.sourceforge.net/DTD/sodipodi-0.dtd"
   xmlns="http://www.w3.org/2000/svg"
   xmlns:svg="http://www.w3.org/2000/svg"><defs
     id="defs1" /><sodipodi:namedview
     id="namedview1"
     pagecolor="#ffffff"
     bordercolor="#000000"
     borderopacity="0.25"
     inkscape:showpageshadow="2"
     inkscape:pageopacity="0.0"
     inkscape:pagecheckerboard="0"
     inkscape:deskcolor="#d1d1d1"
     inkscape:zoom="6.6162111"
     inkscape:cx="61.515571"
     inkscape:cy="61.439999"
     inkscape:window-width="1920"
     inkscape:window-height="1009"
     inkscape:window-x="-8"
     inkscape:window-y="-8"
     inkscape:window-maximized="1"
     inkscape:current-layer="Layer_1" /><g
     id="g1"><path
       d="M61.44,0c16.966,0,32.326,6.877,43.445,17.996c11.119,11.118,17.996,26.479,17.996,43.444 c0,16.967-6.877,32.326-17.996,43.444C93.766,116.003,78.406,122.88,61.44,122.88c-16.966,0-32.326-6.877-43.444-17.996 C6.877,93.766,0,78.406,0,61.439c0-16.965,6.877-32.326,17.996-43.444C29.114,6.877,44.474,0,61.44,0L61.44,0z M80.16,37.369 c1.301-1.302,3.412-1.302,4.713,0c1.301,1.301,1.301,3.411,0,4.713L65.512,61.444l19.361,19.362c1.301,1.301,1.301,3.411,0,4.713 c-1.301,1.301-3.412,1.301-4.713,0L60.798,66.157L41.436,85.52c-1.301,1.301-3.412,1.301-4.713,0c-1.301-1.302-1.301-3.412,0-4.713 l19.363-19.362L36.723,42.082c-1.301-1.302-1.301-3.412,0-4.713c1.301-1.302,3.412-1.302,4.713,0l19.363,19.362L80.16,37.369 L80.16,37.369z M100.172,22.708C90.26,12.796,76.566,6.666,61.44,6.666c-15.126,0-28.819,6.13-38.731,16.042 C12.797,32.62,6.666,46.314,6.666,61.439c0,15.126,6.131,28.82,16.042,38.732c9.912,9.911,23.605,16.042,38.731,16.042 c15.126,0,28.82-6.131,38.732-16.042c9.912-9.912,16.043-23.606,16.043-38.732C116.215,46.314,110.084,32.62,100.172,22.708 L100.172,22.708z"
       id="path1" /></g><path
     style="fill:#ffffff;stroke:#ffffff;stroke-width:0.151144"
     d="M 58.719408,122.71905 C 39.239514,121.88442 21.256164,111.73517 10.397038,95.447378 4.9291021,87.245926 1.6203546,78.16344 0.43087038,68.090331 c -0.37395474,-3.166825 -0.37395474,-10.13384 0,-13.300664 C 1.1304431,48.865358 2.4803974,43.552868 4.6241046,38.287992 13.627882,16.175004 34.969773,1.1296832 58.681622,0.17924655 74.419347,-0.45156513 88.791088,4.4254903 100.96413,14.527832 c 2.97203,2.466475 7.055,6.787173 9.62384,10.184197 4.71228,6.231505 8.56133,14.382761 10.45579,22.142582 1.22869,5.032787 1.67308,8.906832 1.67308,14.585388 0,4.719479 -0.1949,7.06509 -0.91053,10.957933 -3.36276,18.292586 -14.55513,33.784968 -31.001092,42.911448 -7.642533,4.24112 -17.475904,7.03445 -25.874599,7.3501 -1.130114,0.0425 -2.428834,0.0973 -2.886045,0.12182 -0.45721,0.0245 -1.953535,-0.003 -3.325166,-0.0623 z m 9.67321,-6.85614 c 8.877471,-1.23059 16.22651,-3.98373 23.427306,-8.77646 3.327125,-2.21449 5.286685,-3.8312 8.324036,-6.86768 4.70641,-4.70506 7.65329,-8.801502 10.49982,-14.595746 2.63745,-5.368636 4.22376,-10.453216 5.04555,-16.172398 1.62722,-11.324544 -0.16318,-22.51277 -5.21661,-32.598656 -2.58211,-5.153492 -5.67755,-9.481244 -9.80505,-13.708487 C 91.904822,14.168865 80.918714,8.686809 68.317046,7.0005548 65.459493,6.6181797 57.494798,6.6169408 54.638523,6.998427 44.304031,8.3787089 35.042008,12.300553 27.05476,18.678298 23.399388,21.597078 18.68404,26.720443 16.006815,30.682213 5.1140339,46.801416 3.5625512,67.671212 11.961785,85.09402 c 2.887268,5.989156 6.020596,10.388837 10.769233,15.12168 2.916944,2.90724 4.952864,4.60572 7.951195,6.63333 7.991119,5.40397 16.122264,8.2592 26.450184,9.28792 1.52815,0.15221 9.602906,-0.0443 11.260221,-0.27404 z"
     id="path2" /><path
     style="fill:#ffffff;stroke:#ffffff;stroke-width:0.151144"
     d="M 38.127423,86.247223 C 37.272625,85.930086 36.844339,85.602619 36.393652,84.921586 35.863203,84.120023 35.73537,82.683473 36.121991,81.868732 36.276883,81.54232 40.343567,77.364261 46.295461,71.416638 L 56.210892,61.50832 46.223008,51.498661 C 38.18764,43.445776 36.198718,41.375071 36.048894,40.906196 c -0.304162,-0.95187 -0.133474,-2.257486 0.3932,-3.007644 0.894018,-1.273377 2.694042,-1.774523 3.988901,-1.110552 0.290952,0.149193 4.999227,4.734765 10.462833,10.190159 l 9.933831,9.9189 9.975223,-10.003542 c 9.76688,-9.794608 9.992843,-10.008664 10.81887,-10.248797 0.713825,-0.207515 0.964492,-0.216688 1.628953,-0.05961 1.362711,0.32214 2.519385,1.765659 2.522619,3.148203 0.003,1.268703 0.15581,1.096854 -10.301471,11.582652 -5.473033,5.487958 -9.950969,10.043774 -9.950969,10.124035 0,0.08026 4.477936,4.636076 9.950969,10.124034 8.584809,8.60822 9.975087,10.063514 10.126642,10.600217 0.350502,1.241233 0.114726,2.221268 -0.763644,3.174188 -1.003693,1.088877 -2.503217,1.367378 -3.816493,0.708821 -0.25226,-0.126498 -4.914311,-4.677163 -10.360112,-10.11259 l -9.901457,-9.882591 -9.822823,9.833368 c -5.493887,5.499785 -10.072395,9.963378 -10.389129,10.128373 -0.762314,0.397108 -1.725508,0.490105 -2.417414,0.233403 z"
     id="path3" /></svg>
