<?xml version="1.0" encoding="UTF-8" standalone="no"?>
<svg
   version="1.1"
   id="Layer_1"
   x="0px"
   y="0px"
   viewBox="0 0 80.74 122.88"
   style="enable-background:new 0 0 80.74 122.88"
   xml:space="preserve"
   sodipodi:docname="mw-help.svg"
   inkscape:version="1.3.2 (091e20e, 2023-11-25, custom)"
   xmlns:inkscape="http://www.inkscape.org/namespaces/inkscape"
   xmlns:sodipodi="http://sodipodi.sourceforge.net/DTD/sodipodi-0.dtd"
   xmlns="http://www.w3.org/2000/svg"
   xmlns:svg="http://www.w3.org/2000/svg"><defs
     id="defs1" /><sodipodi:namedview
     id="namedview1"
     pagecolor="#ffffff"
     bordercolor="#000000"
     borderopacity="0.25"
     inkscape:showpageshadow="2"
     inkscape:pageopacity="0.0"
     inkscape:pagecheckerboard="0"
     inkscape:deskcolor="#d1d1d1"
     inkscape:zoom="6.6162111"
     inkscape:cx="40.355423"
     inkscape:cy="109.80605"
     inkscape:window-width="1920"
     inkscape:window-height="1009"
     inkscape:window-x="-8"
     inkscape:window-y="-8"
     inkscape:window-maximized="1"
     inkscape:current-layer="Layer_1" /><g
     id="g1"><path
       d="M49.14,122.88h-23.3c-1.57,0-3-0.64-4.03-1.67c-1.03-1.03-1.67-2.46-1.67-4.03V98.47c0-1.57,0.64-3,1.67-4.03 c1.03-1.03,2.46-1.67,4.03-1.67h23.3c1.57,0,3,0.64,4.03,1.67c1.03,1.03,1.67,2.46,1.67,4.03v18.71c0,1.57-0.64,3-1.67,4.03 C52.14,122.24,50.71,122.88,49.14,122.88L49.14,122.88z M20.1,78.75c0.02-1.73,0.12-3.35,0.29-4.83c0.17-1.55,0.43-3.04,0.77-4.46 c0.38-1.57,0.84-3.01,1.4-4.3c0.58-1.36,1.26-2.59,2.04-3.69l0.05-0.07l0,0l0.13-0.17l0.04-0.05c0.69-0.95,1.47-1.91,2.36-2.87 c0.92-0.99,1.94-2,3.06-3.01c1.06-0.96,2.3-1.99,3.71-3.09c1.32-1.04,2.79-2.12,4.39-3.24c0.07-0.06,0.14-0.12,0.22-0.17 c0.08-0.06,0.17-0.11,0.26-0.15c0.52-0.34,1.03-0.7,1.53-1.08c0.51-0.4,1-0.83,1.47-1.28c0.45-0.44,0.87-0.91,1.26-1.39 c0.38-0.47,0.71-0.94,1.01-1.41c0.02-0.04,0.04-0.07,0.07-0.11l0,0c0.3-0.48,0.56-0.96,0.77-1.46c0.21-0.48,0.39-1.02,0.55-1.62 c0.15-0.56,0.27-1.16,0.34-1.8c0.08-0.64,0.12-1.31,0.12-2.02c0-0.71-0.04-1.34-0.12-1.91c-0.08-0.57-0.2-1.07-0.35-1.52 c-0.14-0.41-0.3-0.79-0.5-1.13c-0.19-0.34-0.42-0.65-0.68-0.94l-0.05-0.05l0,0l-0.07-0.08c-0.2-0.2-0.41-0.37-0.63-0.51 c-0.25-0.16-0.54-0.31-0.88-0.44l-0.05-0.02l0,0l-0.05-0.02c-0.39-0.14-0.81-0.25-1.25-0.32c-0.47-0.07-1.02-0.11-1.67-0.11 c-0.49,0-0.92,0.03-1.28,0.09c-0.36,0.06-0.71,0.15-1.03,0.27c-0.29,0.11-0.57,0.24-0.84,0.41c-0.27,0.16-0.53,0.36-0.78,0.59 c-0.19,0.18-0.36,0.37-0.5,0.58c-0.16,0.23-0.29,0.5-0.41,0.79c-0.14,0.36-0.25,0.79-0.34,1.29c-0.1,0.55-0.15,1.12-0.17,1.71 l0,0.03c-0.05,1.53-0.69,2.91-1.71,3.9c-0.96,0.93-2.23,1.53-3.64,1.61c-0.11,0.01-0.21,0.02-0.32,0.02H5.83 c-1.28,0-2.47-0.43-3.43-1.15c-0.96-0.73-1.69-1.76-2.04-2.96l-0.04-0.11c-0.13-0.36-0.22-0.73-0.27-1.08 C0,35.04-0.01,34.68,0.01,34.31c-0.02-2.71,0.18-5.25,0.6-7.61c0.44-2.45,1.11-4.76,2.03-6.93c0.96-2.27,2.17-4.35,3.63-6.23 c1.46-1.89,3.17-3.59,5.12-5.09c1.87-1.44,3.87-2.69,5.99-3.75c2.1-1.05,4.37-1.93,6.79-2.64c2.34-0.68,4.81-1.2,7.39-1.54 C34.18,0.17,36.87,0,39.63,0c3.01,0,5.89,0.2,8.65,0.59c2.75,0.39,5.36,0.99,7.84,1.78C58.64,3.18,61,4.2,63.2,5.43 c2.13,1.19,4.11,2.58,5.94,4.17c0.11,0.08,0.21,0.17,0.31,0.26l0.03,0.03c1.85,1.64,3.46,3.41,4.85,5.32 c1.42,1.96,2.62,4.08,3.58,6.37c0.95,2.25,1.66,4.62,2.12,7.1c0.47,2.49,0.7,5.09,0.7,7.79c0,1.69-0.13,3.39-0.4,5.1 c-0.26,1.69-0.65,3.33-1.17,4.94c-0.52,1.62-1.17,3.19-1.95,4.71c-0.77,1.52-1.67,3-2.69,4.43l0,0c-0.04,0.06-0.09,0.13-0.15,0.2 l0,0c-0.94,1.32-1.99,2.61-3.13,3.88c-1.11,1.23-2.28,2.38-3.49,3.44c-1.27,1.11-2.59,2.13-3.95,3.06 c-1.3,0.89-2.67,1.72-4.13,2.49c-0.53,0.36-1.01,0.7-1.42,1.04c-0.42,0.34-0.8,0.69-1.13,1.03c-0.04,0.04-0.07,0.07-0.11,0.11 c-0.22,0.24-0.42,0.49-0.62,0.77c-0.18,0.26-0.33,0.52-0.45,0.77l-0.04,0.08l-0.01,0.02c-0.02,0.03-0.03,0.07-0.05,0.1 c-0.12,0.29-0.24,0.61-0.34,0.97c-0.11,0.4-0.22,0.87-0.31,1.42c-0.1,0.58-0.18,1.22-0.23,1.9c-0.05,0.68-0.08,1.44-0.08,2.29 c0,1.57-0.64,3-1.67,4.03c-1.03,1.03-2.46,1.67-4.03,1.67H25.77c-1.57,0-3-0.64-4.03-1.67c-0.06-0.06-0.12-0.12-0.17-0.19 c-0.93-1.01-1.5-2.36-1.5-3.84c0-0.01,0-0.08,0.01-0.27C20.09,78.88,20.1,78.82,20.1,78.75L20.1,78.75z M25.48,74.48 c-0.16,1.4-0.24,2.85-0.27,4.35c0,0.11,0,0.22-0.01,0.33l0,0.02c0,0.09,0.01-0.08,0.01,0.03c0,0.13,0.04,0.25,0.11,0.35l0.05,0.05 c0.1,0.1,0.24,0.16,0.4,0.16h23.44c0.16,0,0.3-0.06,0.4-0.16c0.1-0.1,0.16-0.24,0.16-0.4c0-0.91,0.03-1.79,0.1-2.65 c0.06-0.86,0.16-1.66,0.29-2.4c0.12-0.67,0.27-1.33,0.45-1.98c0.17-0.58,0.36-1.12,0.58-1.62c0.02-0.05,0.04-0.11,0.07-0.16 l0.02-0.03l0.01-0.03c0.25-0.55,0.56-1.08,0.93-1.61c0.3-0.42,0.66-0.87,1.09-1.32c0.04-0.05,0.09-0.11,0.14-0.16 c0.47-0.49,1-0.97,1.59-1.45c0.58-0.48,1.21-0.94,1.88-1.38l0,0c0.07-0.05,0.15-0.09,0.23-0.13c1.28-0.67,2.54-1.43,3.78-2.28 c1.22-0.84,2.38-1.73,3.47-2.68c1.09-0.95,2.11-1.96,3.07-3.02c0.94-1.03,1.85-2.18,2.75-3.43l0,0c0.03-0.03,0.05-0.07,0.08-0.1 l0,0l0,0l0.01-0.01c0,0,0,0,0.02-0.03l0,0l0.02-0.02c0.88-1.23,1.65-2.5,2.31-3.79c0.66-1.3,1.21-2.63,1.64-3.97 c0.44-1.37,0.77-2.76,0.99-4.16c0.21-1.37,0.32-2.81,0.32-4.32c0-2.42-0.2-4.71-0.6-6.85c-0.4-2.15-1.01-4.17-1.8-6.06 c-0.8-1.89-1.8-3.68-3.02-5.35c-1.21-1.66-2.61-3.19-4.2-4.59l-0.04-0.04c-1.59-1.41-3.34-2.64-5.23-3.69 c-1.9-1.06-3.96-1.95-6.16-2.65c-2.18-0.7-4.51-1.23-7-1.58c-2.48-0.35-5.12-0.53-7.92-0.53c-2.63,0-5.1,0.15-7.4,0.46 C29.9,5.9,27.69,6.36,25.6,6.97c-2.08,0.61-4.06,1.38-5.93,2.32c-1.86,0.93-3.57,2-5.15,3.21c-1.61,1.24-3.01,2.63-4.2,4.17 c-1.2,1.55-2.18,3.24-2.97,5.09c-0.75,1.78-1.32,3.72-1.69,5.83c-0.38,2.11-0.56,4.34-0.54,6.69c0.01,0.1,0.01,0.2,0,0.3 c0,0.03,0,0.07,0.01,0.11c0.01,0.05,0.02,0.09,0.03,0.12l0.03,0.1c0.03,0.09,0.06,0.17,0.09,0.27c0.03,0.12,0.11,0.22,0.2,0.29 c0.09,0.07,0.21,0.11,0.34,0.11h22.54c0.08-0.01,0.16-0.01,0.24-0.01c0.16,0,0.3-0.06,0.39-0.16c0.1-0.1,0.16-0.22,0.17-0.36 l0-0.02c0.02-0.91,0.1-1.74,0.23-2.47c0.14-0.79,0.35-1.54,0.62-2.25c0.25-0.65,0.56-1.25,0.93-1.79c0.38-0.57,0.82-1.08,1.31-1.52 c0.49-0.44,1.01-0.83,1.56-1.17c0.55-0.34,1.14-0.62,1.76-0.85c0.61-0.22,1.27-0.39,1.97-0.51c0.7-0.11,1.39-0.17,2.09-0.17 c0.83,0,1.65,0.06,2.46,0.19c0.83,0.13,1.58,0.32,2.26,0.57l0,0c0.03,0.01,0.07,0.03,0.1,0.04l0.1,0.04 c0.62,0.24,1.22,0.56,1.78,0.93c0.55,0.36,1.06,0.77,1.5,1.23c0.06,0.06,0.12,0.12,0.18,0.19l0.12,0.14l0,0 c0.48,0.54,0.9,1.12,1.26,1.75c0.37,0.65,0.68,1.33,0.92,2.05c0.26,0.76,0.45,1.57,0.57,2.42c0.12,0.85,0.18,1.72,0.18,2.63 c0,0.9-0.05,1.78-0.16,2.64c-0.11,0.85-0.27,1.69-0.48,2.5c-0.21,0.77-0.48,1.54-0.81,2.32c-0.33,0.76-0.7,1.47-1.12,2.14 l-0.01,0.02c-0.44,0.71-0.91,1.38-1.41,2c-0.51,0.63-1.06,1.25-1.66,1.83c-0.58,0.57-1.22,1.13-1.91,1.67 c-0.59,0.46-1.22,0.91-1.91,1.34c-0.06,0.05-0.12,0.09-0.18,0.13l-0.14,0.09l0,0c-1.5,1.06-2.9,2.08-4.17,3.08 c-1.23,0.96-2.37,1.92-3.43,2.87c-1.02,0.92-1.93,1.81-2.72,2.67c-0.76,0.83-1.42,1.62-1.97,2.39c-0.03,0.05-0.07,0.1-0.11,0.15 l-0.12,0.16c-0.56,0.8-1.05,1.7-1.48,2.69c-0.46,1.07-0.84,2.24-1.14,3.48C25.86,71.8,25.64,73.08,25.48,74.48L25.48,74.48z M25.84,117.75h23.3c0.16,0,0.3-0.06,0.4-0.16c0.1-0.1,0.16-0.24,0.16-0.4V98.47c0-0.16-0.06-0.3-0.16-0.4 c-0.1-0.1-0.24-0.16-0.4-0.16h-23.3c-0.16,0-0.3,0.06-0.4,0.16c-0.1,0.1-0.16,0.24-0.16,0.4v18.71c0,0.16,0.06,0.3,0.16,0.4 C25.55,117.68,25.69,117.75,25.84,117.75L25.84,117.75z"
       id="path1" /></g><path
     style="fill:#ffffff;stroke:#ffffff;stroke-width:0.151144"
     d="m 25.06826,122.7318 c -2.395534,-0.36098 -4.264911,-2.1845 -4.734016,-4.61787 -0.123268,-0.63943 -0.16034,-3.8044 -0.127407,-10.87733 l 0.04645,-9.975495 0.474321,-1.001083 c 0.662295,-1.397816 1.392598,-2.146236 2.747917,-2.816088 l 1.145197,-0.566002 h 12.77953 c 12.283518,0 12.810262,0.0114 13.571371,0.293761 1.085882,0.402846 2.122688,1.221033 2.794889,2.205563 1.043357,1.528139 1.038461,1.464448 0.990455,12.884034 l -0.04287,10.19743 -0.604576,1.18386 c -0.701885,1.37441 -1.639981,2.23833 -3.046506,2.80561 l -0.883236,0.35624 -12.167084,0.0222 c -6.691897,0.0123 -12.516892,-0.0305 -12.944433,-0.0949 z m 24.585744,-5.14184 c 0.08631,-0.13657 0.144205,-4.02336 0.1456,-9.77577 0.0021,-8.481449 -0.02424,-9.575612 -0.235198,-9.78657 -0.211878,-0.211878 -1.515693,-0.237511 -12.080717,-0.237511 -10.565024,0 -11.868838,0.02563 -12.080716,0.237511 -0.210923,0.210923 -0.237512,1.309789 -0.237512,9.81578 v 9.57828 l 0.339732,0.23795 c 0.303316,0.21245 1.608091,0.23362 12.172628,0.1975 10.32392,-0.0353 11.851169,-0.0694 11.976183,-0.26717 z"
     id="path2" /><path
     style="fill:#ffffff;stroke:#ffffff;stroke-width:0.151144"
     d="m 23.788912,84.437646 c -1.533331,-0.633897 -2.468824,-1.518098 -3.136132,-2.964183 -0.483371,-1.047485 -0.585568,-2.815379 -0.335986,-5.812174 0.338464,-4.064024 1.186421,-7.843835 2.355796,-10.50107 2.362139,-5.367625 7.095383,-10.079523 17.249821,-17.172028 1.207043,-0.843076 3.047312,-2.689317 3.82334,-3.835747 1.58836,-2.346494 2.193005,-4.430026 2.198459,-7.575618 0.0049,-2.803422 -0.423395,-4.323549 -1.593489,-5.656212 -1.3561,-1.544514 -5.409989,-2.084433 -7.529994,-1.002887 -1.722705,0.878858 -2.298195,1.96735 -2.575881,4.872067 -0.193059,2.019488 -0.611877,3.019187 -1.735679,4.142989 -0.648545,0.648545 -1.187733,1.027704 -1.826954,1.284723 L 29.77535,40.582139 H 17.154834 4.5343172 L 3.5518818,40.109784 C 1.8793439,39.305628 0.88068779,38.058653 0.29363566,36.041367 -0.23426364,34.227347 0.24931186,28.167009 1.2277938,24.334169 3.4796568,15.513332 9.0059521,8.9122596 17.667304,4.6974352 24.165908,1.535057 30.915616,0.13757271 39.68268,0.13929152 43.449894,0.14003008 45.448326,0.27698197 48.703159,0.75746223 65.359411,3.2162674 77.189768,13.822939 79.947915,28.770382 c 2.313906,12.539938 -1.045513,23.144201 -10.25929,32.384245 -2.829333,2.837396 -5.95688,5.227808 -9.079918,6.939863 -1.573913,0.862822 -3.32016,2.265464 -4.081738,3.278587 -1.085677,1.44427 -1.487183,3.084476 -1.720182,7.027154 -0.118066,1.997863 -0.181545,2.357409 -0.555927,3.148787 -0.536253,1.133547 -1.638001,2.239347 -2.750721,2.760842 l -0.86693,0.4063 -12.998376,0.03594 -12.998376,0.03594 z m 26.120516,-7.109874 c 0.397197,-5.208191 1.357358,-7.728421 3.897803,-10.230947 1.472512,-1.450532 2.452362,-2.190283 4.23203,-3.195035 6.332692,-3.575264 11.768244,-9.129151 14.725987,-15.046582 1.994406,-3.990125 2.882278,-7.839713 2.882278,-12.496824 0,-6.57042 -1.569918,-12.395891 -4.57694,-16.983588 C 66.681606,12.678699 59.671299,8.0926832 50.935497,6.2027876 47.578178,5.4764681 45.525079,5.2672716 40.920943,5.1823741 c -2.828164,-0.05215 -5.116419,-0.018075 -6.348044,0.09453 -7.902056,0.7224696 -14.058363,2.8327299 -19.382936,6.6440879 -5.04003,3.607681 -8.1782204,8.559349 -9.4419662,14.898231 -0.6846027,3.433931 -0.9174874,7.846518 -0.4493896,8.51482 l 0.2352864,0.335919 H 17.220469 c 9.168548,0 11.718875,-0.04071 11.836483,-0.18893 0.08245,-0.103911 0.196022,-0.780053 0.252385,-1.502536 0.372893,-4.779913 2.961715,-8.041402 7.319768,-9.221707 1.643391,-0.445084 4.741928,-0.438334 6.446909,0.01404 3.127052,0.829694 5.314986,2.653232 6.672301,5.561045 1.817643,3.893987 1.591986,9.821356 -0.54008,14.186489 -1.40335,2.873177 -3.846986,5.676513 -6.647741,7.626281 C 34.164678,57.989458 29.618237,62.2908 27.623277,66.2766 c -1.166935,2.331456 -1.98053,5.515294 -2.298077,8.993062 -0.179805,1.969236 -0.210108,4.282424 -0.05809,4.434443 0.05591,0.05591 5.582107,0.08425 12.280443,0.06298 l 12.178792,-0.03867 z"
     id="path3" /></svg>
