<?xml version="1.0" encoding="UTF-8" standalone="no"?>
<svg
   version="1.1"
   id="Layer_1"
   x="0px"
   y="0px"
   viewBox="0 0 114.5 122.9"
   style="enable-background:new 0 0 114.5 122.9"
   xml:space="preserve"
   sodipodi:docname="mw-modify-data.svg"
   inkscape:version="1.3.2 (091e20e, 2023-11-25, custom)"
   xmlns:inkscape="http://www.inkscape.org/namespaces/inkscape"
   xmlns:sodipodi="http://sodipodi.sourceforge.net/DTD/sodipodi-0.dtd"
   xmlns="http://www.w3.org/2000/svg"
   xmlns:svg="http://www.w3.org/2000/svg"><defs
     id="defs1" /><sodipodi:namedview
     id="namedview1"
     pagecolor="#ffffff"
     bordercolor="#000000"
     borderopacity="0.25"
     inkscape:showpageshadow="2"
     inkscape:pageopacity="0.0"
     inkscape:pagecheckerboard="0"
     inkscape:deskcolor="#d1d1d1"
     inkscape:zoom="6.6151342"
     inkscape:cx="57.292867"
     inkscape:cy="61.450001"
     inkscape:window-width="1920"
     inkscape:window-height="1009"
     inkscape:window-x="-8"
     inkscape:window-y="-8"
     inkscape:window-maximized="1"
     inkscape:current-layer="Layer_1" /><style
     type="text/css"
     id="style1">.st0{fill-rule:evenodd;clip-rule:evenodd;}</style><g
     id="g1"><path
       class="st0"
       d="M105.4,76.3l3.8,3.8c1,1,1,2.6,0,3.6l-3.1,3.1c0.8,1.6,1.5,3.3,1.9,5.1h4c1.4,0,2.6,1.2,2.6,2.6v5.4 c0,1.4-1.2,2.6-2.6,2.6h-4.3c-0.5,1.7-1.3,3.4-2.2,4.9l2.8,2.8c1,1,1,2.6,0,3.6l-3.8,3.8c-1,1-2.6,1-3.6,0l-3.1-3.1 c-1.6,0.8-3.3,1.5-5.1,1.9v4c0,1.4-1.2,2.6-2.6,2.6h-5.4c-1.4,0-2.6-1.2-2.6-2.6V116c-1.7-0.5-3.4-1.3-4.9-2.2l-2.8,2.8 c-1,1-2.6,1-3.6,0l-3.8-3.8c-1-1-1-2.6,0-3.6l3.1-3.1c-0.8-1.6-1.5-3.3-1.9-5.1h-4c-1.4,0-2.6-1.2-2.6-2.6v-5.4 c0-1.4,1.2-2.6,2.6-2.6h4.3c0.5-1.7,1.3-3.4,2.2-4.9L68,82.8c-1-1-1-2.6,0-3.6l3.8-3.8c1-1,2.6-1,3.6,0l3.1,3.1 c1.6-0.8,3.3-1.5,5.1-1.9v-4c0-1.4,1.2-2.6,2.6-2.6h5.4c1.4,0,2.6,1.2,2.6,2.6v4.3c1.7,0.5,3.4,1.3,4.9,2.2l2.8-2.8 C102.7,75.3,104.4,75.3,105.4,76.3L105.4,76.3L105.4,76.3z M41.4,82.2c-1.4,0-2.5-1.4-2.5-3c0-1.7,1.1-3,2.5-3h12.4 c1.4,0,2.5,1.4,2.5,3c0,1.7-1.1,3-2.5,3H41.4L41.4,82.2L41.4,82.2z M45.1,112.3c1.7,0,3,1.4,3,3c0,1.7-1.4,3-3,3h-38 c-1.9,0-3.7-0.8-5-2.1c-1.3-1.3-2.1-3-2.1-5V7.1c0-2,0.8-3.7,2.1-5c1.3-1.3,3-2.1,5-2.1h86.7c1.9,0,3.7,0.8,5,2.1 c1.3,1.3,2.1,3,2.1,5v48.3c0,1.7-1.4,3-3,3c-1.7,0-3-1.4-3-3V7.1c0-0.3-0.1-0.5-0.3-0.7c-0.2-0.2-0.4-0.3-0.7-0.3H7.1 c-0.3,0-0.5,0.1-0.7,0.3C6.2,6.5,6.1,6.8,6.1,7.1v104.3c0,0.3,0.1,0.5,0.3,0.7c0.2,0.2,0.4,0.3,0.7,0.3H45.1L45.1,112.3L45.1,112.3 z M18.8,74.1h10.7c0.6,0,1,0.4,1,1v9.2c0,0.6-0.4,1-1,1H18.8c-0.6,0-1-0.4-1-1v-9.2C17.8,74.5,18.2,74.1,18.8,74.1L18.8,74.1 L18.8,74.1z M18.8,21.2h10.7c0.6,0,1,0.4,1,1v9.2c0,0.6-0.4,1-1,1H18.8c-0.6,0-1-0.4-1-1v-9.2C17.8,21.6,18.2,21.2,18.8,21.2 L18.8,21.2L18.8,21.2z M41.4,29.3c-1.4,0-2.5-1.4-2.5-3c0-1.7,1.1-3,2.5-3h34.7c1.4,0,2.5,1.4,2.5,3c0,1.7-1.1,3-2.5,3H41.4 L41.4,29.3L41.4,29.3z M21.9,57.4c-0.7,0.5-1.6,0.4-2.3-0.3c-0.1-0.1-0.1-0.1-0.2-0.2l-3.2-3.3c-0.7-0.7-0.5-1.8,0.3-2.6 c0.9-0.7,2.1-0.8,2.8-0.1l1.7,1.8l5.6-4.5c0.7-0.6,1.9-0.3,2.5,0.6c0.7,0.9,0.6,2.2-0.2,2.8L21.9,57.4L21.9,57.4L21.9,57.4z M39.7,54.8c-1.4,0-2.5-1.4-2.5-3c0-1.7,1.1-3,2.5-3h34.7c1.4,0,2.5,1.4,2.5,3c0,1.7-1.1,3-2.5,3H39.7L39.7,54.8L39.7,54.8z M88.1,85.9c5.8,0,10.6,4.7,10.6,10.6c0,5.8-4.7,10.6-10.6,10.6c-5.8,0-10.6-4.7-10.6-10.6C77.5,90.6,82.3,85.9,88.1,85.9 L88.1,85.9L88.1,85.9z"
       id="path1" /></g><path
     style="fill:#ffffff;stroke:#ffffff;stroke-width:0.151169"
     d="m 5.3822991,117.97455 c -1.786605,-0.48044 -3.586183,-1.89137 -4.43314967,-3.47572 -0.94155386,-1.76129 -0.87356517,2.53994 -0.87356517,-55.265093 0,-38.179038 0.04646897,-52.9395428 0.16849049,-53.5196849 C 0.52783663,4.3649276 1.1134688,3.3233405 2.203791,2.2285621 3.4412511,0.98604438 4.6615626,0.36566256 6.2817766,0.15539624 7.8155189,-0.04364809 93.020032,-0.0428397 94.554292,0.15623373 97.313104,0.51419538 99.562177,2.348712 100.4412,4.9580485 c 0.31519,0.9356374 0.31523,0.9392822 0.27613,26.2433535 l -0.0391,25.307586 -0.46953,0.5809 c -0.69301,0.85738 -1.337445,1.180536 -2.354219,1.180536 -0.710657,0 -0.974841,-0.0791 -1.512908,-0.453009 -0.379887,-0.263984 -0.793828,-0.733608 -0.992033,-1.125483 L 95.009411,56.019456 V 31.431406 6.8433558 L 94.696102,6.4450483 94.382793,6.0467405 H 50.490284 6.597774 L 6.2844651,6.4450483 5.9711563,6.8433558 V 59.258057 111.67276 l 0.3145585,0.3999 0.3145586,0.39989 19.6392776,-0.005 c 19.478736,-0.005 19.644223,-0.002 20.244191,0.30374 1.280372,0.65319 1.884276,2.46093 1.241168,3.71533 -0.379583,0.74038 -0.856462,1.19161 -1.577929,1.49306 -0.496122,0.20729 -2.805364,0.23283 -20.254518,0.22402 -16.7119851,-0.008 -19.818071,-0.0432 -20.5101639,-0.22928 z"
     id="path2" /><path
     style="fill:#ffffff;stroke:#ffffff;stroke-width:0.151169"
     d="m 18.249442,85.023717 c -0.335772,-0.235184 -0.335973,-0.238339 -0.335973,-5.2801 0,-4.384602 0.03109,-5.075862 0.23755,-5.282326 0.207701,-0.207701 0.966438,-0.237551 6.038169,-0.237551 h 5.800618 l 0.235325,0.335973 c 0.201019,0.286995 0.235324,1.037268 0.235324,5.146601 v 4.810628 l -0.371049,0.37105 -0.371051,0.37105 h -5.56647 c -4.793429,0 -5.613128,-0.03268 -5.902443,-0.235325 z"
     id="path3" /><path
     style="fill:#ffffff;stroke:#ffffff;stroke-width:0.151169"
     d="M 40.273274,81.739904 C 38.75441,80.716341 38.568594,78.243612 39.912629,76.94065 l 0.541515,-0.524966 6.99232,-0.04209 6.99232,-0.04209 0.50877,0.344427 c 1.595939,1.080415 1.606141,4.011579 0.01764,5.067223 l -0.513654,0.341349 h -6.833456 -6.833457 z"
     id="path4" /><path
     style="fill:#ffffff;stroke:#ffffff;stroke-width:0.151169"
     d="m 38.801878,54.469773 c -0.88636,-0.438546 -1.538839,-1.611179 -1.538839,-2.765592 0,-0.305719 0.186724,-0.923659 0.415713,-1.375751 0.325484,-0.642603 0.56211,-0.894565 1.090211,-1.160871 L 39.44346,48.82743 h 17.56926 c 12.021632,0 17.703631,0.05066 17.994814,0.16044 2.03146,0.76589 2.411269,4.027592 0.617937,5.306688 l -0.49472,0.35286 -17.913469,0.03535 c -16.35517,0.03227 -17.957132,0.01375 -18.415404,-0.212995 z"
     id="path5" /><path
     style="fill:#ffffff;stroke:#ffffff;stroke-width:0.151169"
     d="m 18.271251,55.6045 c -2.250917,-2.228865 -2.584674,-2.733985 -2.325453,-3.519433 0.338042,-1.024278 1.563656,-1.76663 2.520858,-1.52688 0.236174,0.05916 0.900311,0.57827 1.475859,1.153589 0.575548,0.575319 1.070567,1.046035 1.100042,1.046035 0.02947,0 1.323373,-1.027065 2.87533,-2.282368 1.551957,-1.255302 2.988467,-2.345757 3.192244,-2.423233 0.782579,-0.297536 1.754827,0.327077 2.211906,1.421022 0.258178,0.617906 0.189628,1.191283 -0.20569,1.720485 -0.133739,0.179031 -1.898093,1.692606 -3.920788,3.363499 -4.697183,3.880215 -4.147333,3.797051 -6.924308,1.047284 z"
     id="path6" /><path
     style="fill:#ffffff;stroke:#ffffff;stroke-width:0.151169"
     d="m 18.249442,32.114737 c -0.335744,-0.235164 -0.335973,-0.238761 -0.335973,-5.267468 0,-4.683077 0.01918,-5.049499 0.276448,-5.282327 0.247059,-0.223585 0.888965,-0.250182 6.038169,-0.250182 h 5.76172 l 0.235325,0.335973 c 0.200951,0.286898 0.235324,1.034681 0.235324,5.119344 0,4.610307 -0.01133,4.79778 -0.313308,5.181677 l -0.313309,0.398308 h -5.624212 c -4.845689,0 -5.670718,-0.03257 -5.960184,-0.235325 z"
     id="path7" /><path
     style="fill:#ffffff;stroke:#ffffff;stroke-width:0.151169"
     d="m 40.275943,28.832723 c -1.80536,-1.216633 -1.651822,-4.247139 0.265073,-5.231964 0.238604,-0.122586 5.282818,-0.169639 18.185521,-0.169639 19.582221,0 18.287148,-0.06145 19.101431,0.906276 0.992291,1.17927 0.904828,2.94996 -0.204459,4.139212 l -0.581416,0.623331 -18.126065,0.03959 -18.126065,0.03959 z"
     id="path8" /><path
     style="fill:#ffffff;stroke:#ffffff;stroke-width:0.151169"
     d="m 83.822941,122.73058 c -0.429527,-0.17077 -1.149694,-0.81713 -1.411319,-1.26668 -0.106136,-0.18238 -0.205941,-1.34142 -0.251535,-2.92111 l -0.07558,-2.61877 -1.284933,-0.48395 c -0.706712,-0.26618 -1.795126,-0.76162 -2.418696,-1.10097 l -1.133764,-0.61701 -1.674804,1.62736 c -1.918412,1.86407 -2.466857,2.14255 -3.578301,1.81697 -0.91691,-0.26859 -5.290556,-4.62469 -5.556735,-5.53445 -0.333731,-1.14062 -0.05424,-1.67728 1.952241,-3.74865 l 1.781013,-1.83861 -0.49637,-1.05818 c -0.40008,-0.8529 -0.960026,-2.42679 -1.35799,-3.817 -0.03993,-0.1395 -0.603428,-0.18896 -2.152637,-0.18896 -2.273791,0 -2.892867,-0.12861 -3.555466,-0.73862 -0.888767,-0.818231 -0.931307,-1.019266 -0.931307,-4.401112 0,-1.704425 0.051,-3.280783 0.113332,-3.503018 0.06233,-0.222234 0.291519,-0.615826 0.509304,-0.874647 0.725349,-0.86203 1.107144,-0.968227 3.803739,-1.058026 l 2.461185,-0.08196 0.643777,-1.58727 c 0.354076,-0.872998 0.859146,-1.958738 1.122376,-2.412758 L 70.809066,85.49767 69.1641,83.814252 c -1.764891,-1.806145 -1.963491,-2.187505 -1.747077,-3.354811 0.08763,-0.47266 0.507832,-0.972702 2.528145,-3.008495 3.52966,-3.556705 3.721529,-3.574846 6.707567,-0.634184 l 1.82432,1.796598 1.152715,-0.532586 c 0.930808,-0.43006 2.563957,-1.013166 3.853042,-1.375706 0.140053,-0.03939 0.189819,-0.631484 0.19228,-2.287623 0.0038,-2.547235 0.18778,-3.203897 1.075036,-3.836704 0.496986,-0.35446 0.591112,-0.364033 4.01617,-0.408474 3.926777,-0.05095 4.074263,-0.02114 4.83699,0.977804 0.418043,0.54751 0.424505,0.588765 0.499112,3.185811 l 0.07558,2.631118 1.284932,0.485847 c 0.706713,0.267216 1.826851,0.771261 2.489194,1.120099 l 1.20426,0.634252 1.743534,-1.71782 c 1.90047,-1.872458 2.23717,-2.048434 3.34734,-1.749496 0.5236,0.14099 1.033,0.552336 2.6791,2.163384 2.3725,2.321972 2.89759,3.045752 2.89759,3.994018 0,0.36333 -0.0754,0.809186 -0.16759,0.990792 -0.0922,0.181605 -0.95251,1.123549 -1.91186,2.09321 l -1.74427,1.76302 0.61515,1.411519 c 0.33833,0.776335 0.77351,1.932863 0.96705,2.570061 l 0.35191,1.158542 2.34311,0.05243 c 2.63191,0.05889 2.9992,0.17037 3.73361,1.133231 l 0.42352,0.555273 v 3.575994 3.575994 l -0.42352,0.55527 c -0.74514,0.97692 -1.08575,1.07613 -3.89051,1.13321 l -2.50002,0.0509 -0.35836,1.00816 c -0.1971,0.55449 -0.68971,1.64849 -1.09469,2.43111 l -0.73632,1.42296 1.49576,1.52483 c 0.82267,0.83866 1.60697,1.74253 1.74289,2.00862 0.2844,0.55676 0.32389,1.57663 0.0797,2.05822 -0.23946,0.47228 -4.51451,4.76796 -5.00259,5.02674 -0.47552,0.25212 -1.43917,0.28247 -2.01517,0.0635 -0.22125,-0.0841 -1.20126,-0.93508 -2.177785,-1.89101 l -1.7755,-1.73806 -0.968806,0.43825 c -1.271038,0.57498 -3.561126,1.37858 -3.928637,1.37858 -0.273884,0 -0.290432,0.13457 -0.292778,2.3809 -0.0023,2.18905 -0.02994,2.42938 -0.34321,2.9825 -0.191042,0.33731 -0.605008,0.75127 -0.942317,0.94231 -0.573863,0.32502 -0.751404,0.3404 -3.851716,0.33363 -1.787568,-0.004 -3.420188,-0.0747 -3.628044,-0.15735 z m 7.331673,-16.00687 c 1.817945,-0.5685 3.062201,-1.31802 4.385835,-2.64196 1.383473,-1.38379 2.176169,-2.65015 2.745563,-4.386115 0.333044,-1.015381 0.3991,-1.500299 0.411846,-3.023371 0.0182,-2.17433 -0.160738,-2.991484 -1.075808,-4.912976 -0.59206,-1.243227 -0.869263,-1.619417 -2.06399,-2.801024 -2.310494,-2.285124 -4.702048,-3.203145 -7.952091,-3.052489 -4.065136,0.188442 -7.231383,2.243627 -9.067639,5.88573 -0.850666,1.687244 -1.122955,3.082595 -1.022935,5.242037 0.14803,3.195988 1.374084,5.699218 3.758926,7.674558 1.061705,0.8794 3.261603,1.95214 4.589395,2.23793 1.465526,0.31543 3.898126,0.21322 5.290898,-0.22232 z"
     id="path9" /></svg>
