<?xml version="1.0" encoding="UTF-8" standalone="no"?>
<svg
   shape-rendering="geometricPrecision"
   text-rendering="geometricPrecision"
   image-rendering="optimizeQuality"
   fill-rule="evenodd"
   clip-rule="evenodd"
   viewBox="0 0 441 512.02"
   version="1.1"
   id="svg1"
   sodipodi:docname="new-file.svg"
   inkscape:version="1.3.2 (091e20e, 2023-11-25, custom)"
   xmlns:inkscape="http://www.inkscape.org/namespaces/inkscape"
   xmlns:sodipodi="http://sodipodi.sourceforge.net/DTD/sodipodi-0.dtd"
   xmlns="http://www.w3.org/2000/svg"
   xmlns:svg="http://www.w3.org/2000/svg">
  <defs
     id="defs1" />
  <sodipodi:namedview
     id="namedview1"
     pagecolor="#ffffff"
     bordercolor="#000000"
     borderopacity="0.25"
     inkscape:showpageshadow="2"
     inkscape:pageopacity="0.0"
     inkscape:pagecheckerboard="0"
     inkscape:deskcolor="#d1d1d1"
     inkscape:zoom="1.5878285"
     inkscape:cx="220.42682"
     inkscape:cy="256.01001"
     inkscape:window-width="1920"
     inkscape:window-height="1009"
     inkscape:window-x="-8"
     inkscape:window-y="-8"
     inkscape:window-maximized="1"
     inkscape:current-layer="svg1" />
  <path
     d="M324.87 279.77c32.01 0 61.01 13.01 82.03 34.02 21.09 21 34.1 50.05 34.1 82.1 0 32.06-13.01 61.11-34.02 82.11l-1.32 1.22c-20.92 20.29-49.41 32.8-80.79 32.8-32.06 0-61.1-13.01-82.1-34.02-21.01-21-34.02-50.05-34.02-82.11s13.01-61.1 34.02-82.1c21-21.01 50.04-34.02 82.1-34.02zM243.11 38.08v54.18c.99 12.93 5.5 23.09 13.42 29.85 8.2 7.01 20.46 10.94 36.69 11.23l37.92-.04-88.03-95.22zm91.21 120.49-41.3-.04c-22.49-.35-40.21-6.4-52.9-17.24-13.23-11.31-20.68-27.35-22.19-47.23l-.11-1.74V25.29H62.87c-10.34 0-19.75 4.23-26.55 11.03-6.8 6.8-11.03 16.21-11.03 26.55v336.49c0 10.3 4.25 19.71 11.06 26.52 6.8 6.8 16.22 11.05 26.52 11.05h119.41c2.54 8.79 5.87 17.25 9.92 25.29H62.87c-17.28 0-33.02-7.08-44.41-18.46C7.08 432.37 0 416.64 0 399.36V62.87c0-17.26 7.08-32.98 18.45-44.36C29.89 7.08 45.61 0 62.87 0h173.88c4.11 0 7.76 1.96 10.07 5l109.39 118.34c2.24 2.43 3.34 5.49 3.34 8.55l.03 119.72c-8.18-1.97-16.62-3.25-25.26-3.79v-89.25zm-229.76 54.49c-6.98 0-12.64-5.66-12.64-12.64 0-6.99 5.66-12.65 12.64-12.65h150.49c6.98 0 12.65 5.66 12.65 12.65 0 6.98-5.67 12.64-12.65 12.64H104.56zm0 72.3c-6.98 0-12.64-5.66-12.64-12.65 0-6.98 5.66-12.64 12.64-12.64h142.52c3.71 0 7.05 1.6 9.37 4.15a149.03 149.03 0 0 0-30.54 21.14H104.56zm0 72.3c-6.98 0-12.64-5.66-12.64-12.65 0-6.98 5.66-12.64 12.64-12.64h86.2c-3.82 8.05-6.95 16.51-9.29 25.29h-76.91zm277.27 25.48v22.18c0 4.32-3.66 7.97-7.98 7.97h-29.9v29.91c0 4.33-3.65 7.97-7.98 7.97h-22.18c-4.33 0-7.98-3.59-7.98-7.97v-29.91H275.9c-4.32 0-7.97-3.59-7.97-7.97v-22.18c0-4.38 3.59-7.97 7.97-7.97h29.91v-29.91c0-4.39 3.59-7.97 7.98-7.97h22.18c4.39 0 7.98 3.64 7.98 7.97v29.91h29.9c4.39 0 7.98 3.7 7.98 7.97z"
     id="path1" />
  <path
     style="fill:#ffffff;stroke:#ffffff;stroke-width:0.629791"
     d="m 50.769322,460.66395 c -5.974339,-1.29612 -9.892128,-2.67808 -15.50103,-5.46781 -6.975876,-3.46964 -11.789995,-7.0402 -17.320367,-12.84627 -9.2363729,-9.69682 -14.4371811,-19.94079 -16.7086389,-32.91082 -1.39289557,-7.95343 -1.39289557,-348.658128 0,-356.611564 C 3.7293635,38.609142 9.9803881,27.237359 20.956359,16.958443 29.478769,8.9772697 40.801375,3.328192 52.587542,1.1770061 59.520275,-0.08834145 237.51027,-0.10262282 241.08552,1.1618816 c 2.41092,0.8527018 1.92409,0.334637 101.4926,108.0051184 7.63595,8.25729 14.45035,15.90622 15.14312,16.99762 1.23441,1.9447 1.26297,3.21659 1.42915,63.62519 0.16159,58.7421 0.11717,61.6206 -0.94469,61.21075 -1.30909,-0.50527 -14.62723,-2.65418 -19.85053,-3.20292 l -3.62129,-0.38044 v -44.6183 -44.6183 l -27.55336,-0.27182 c -29.62495,-0.29227 -32.17779,-0.5429 -43.61302,-4.2819 -20.85982,-6.82055 -35.46066,-21.28325 -41.81162,-41.41601 -3.29819,-10.45536 -3.52805,-13.83545 -3.53079,-51.919875 l -0.003,-35.122329 -81.71537,0.168933 -81.71537,0.168933 -4.472801,1.636409 C 39.274097,31.183807 30.448801,40.291593 26.588313,51.633232 l -1.396676,4.103265 -0.164118,173.358253 c -0.182064,192.31489 -0.491523,177.95586 4.034385,187.19705 3.037165,6.20141 10.010859,13.25934 16.347982,16.54546 8.436597,4.3748 5.669258,4.21799 74.619474,4.22833 l 62.0886,0.009 1.02363,3.6818 c 0.79842,2.87173 4.90658,13.46526 7.79198,20.09281 0.53136,1.22049 -134.507225,1.04171 -140.164248,-0.18556 z M 329.91546,131.46885 C 328.86135,130.3431 308.89649,108.73913 285.5491,83.460025 l -42.4498,-45.962013 -0.16396,28.201897 c -0.15113,25.996944 -0.0666,28.679519 1.08092,34.310881 3.16732,15.54305 12.12191,25.48124 27.38716,30.39545 7.91233,2.54715 13.2526,2.98137 37.47513,3.04712 l 22.95346,0.0623 z"
     id="path2" />
  <path
     style="fill:#ffffff;stroke:#ffffff;stroke-width:0.629791"
     d="m 317.09973,511.33803 c -37.31182,-2.20002 -72.11089,-23.71103 -91.93481,-56.82945 -16.7629,-28.00459 -20.55139,-63.5926 -10.10931,-94.9639 12.27353,-36.87353 42.91382,-65.71943 80.14408,-75.45058 11.81416,-3.08796 15.54187,-3.52303 30.08732,-3.51161 11.57896,0.009 14.58057,0.21975 20.72009,1.45412 20.02148,4.02538 38.04689,12.62846 53.28034,25.42938 55.15816,46.35026 54.9873,130.89664 -0.35799,177.14233 -18.37782,15.35623 -42.84041,25.36305 -64.82537,26.51787 -3.29065,0.17285 -6.83323,0.38731 -7.87238,0.47657 -1.03916,0.0893 -5.14854,-0.0299 -9.13197,-0.26473 z m 22.36401,-60.68472 c 1.19364,-0.49874 2.74221,-1.84492 3.44128,-2.99151 1.18604,-1.94535 1.27117,-3.14787 1.27336,-17.98694 l 0.002,-15.90222 15.27243,-0.0356 c 17.05483,-0.0397 18.83867,-0.35107 21.07618,-3.67889 1.38836,-2.06487 1.43876,-2.61731 1.43649,-15.74477 -0.004,-20.23712 0.73685,-19.58783 -22.33499,-19.58783 h -15.45011 l -0.002,-15.90222 c -0.003,-22.5549 0.59433,-21.88524 -19.53221,-21.88524 -13.70065,0 -14.99008,0.25955 -17.56749,3.5362 -1.25673,1.59768 -1.31519,2.39604 -1.31519,17.96163 v 16.28963 l -15.58732,9.7e-4 c -17.14449,0.001 -18.4746,0.2508 -21.21068,3.9821 -1.22521,1.67088 -1.30435,2.61377 -1.30435,15.54164 0,12.92825 0.0791,13.87064 1.30435,15.54045 2.73708,3.73017 4.06726,3.97982 21.21068,3.9809 l 15.58732,9.8e-4 v 16.28963 c 0,15.75025 0.0452,16.34703 1.36362,18.02318 2.42571,3.0838 4.16775,3.4232 17.70779,3.44999 9.46342,0.0187 12.98035,-0.19335 14.62884,-0.88213 z"
     id="path3" />
  <path
     style="fill:#ffffff;stroke:#ffffff;stroke-width:0.629791"
     d="m 99.506966,356.10563 c -6.70718,-3.49035 -9.148831,-11.45159 -5.381574,-17.54714 0.768653,-1.2437 2.719065,-3.03814 4.334249,-3.98763 l 2.936699,-1.72636 44.24281,-0.17384 c 25.47489,-0.10009 44.24281,0.0633 44.24281,0.38524 0,0.30749 -0.88691,2.51126 -1.97092,4.89727 -1.084,2.38601 -3.02853,7.59736 -4.32117,11.58079 l -2.35026,7.2426 -39.92164,0.15614 c -35.15694,0.13751 -40.14713,0.0388 -41.811004,-0.82707 z"
     id="path4" />
  <path
     style="fill:#ffffff;stroke:#ffffff;stroke-width:0.629791"
     d="m 103.28571,284.98576 c -0.34638,-0.11555 -1.40396,-0.38067 -2.35016,-0.58917 -4.095788,-0.9025 -8.643517,-7.05687 -8.643517,-11.69712 0,-4.5947 4.409854,-10.6147 8.643517,-11.79948 0.9462,-0.26479 34.87886,-0.48144 75.40591,-0.48144 H 250.027 l 2.67661,1.42983 c 1.47213,0.7864 2.67661,1.68308 2.67661,1.99261 0,0.30954 -1.91299,1.62291 -4.25109,2.9186 -5.8466,3.23999 -13.90121,8.7895 -20.45043,14.09007 l -5.4929,4.44563 -60.63515,-0.0497 c -33.34933,-0.0274 -60.91855,-0.14426 -61.26494,-0.25981 z"
     id="path5" />
  <path
     style="fill:#ffffff;stroke:#ffffff;stroke-width:0.629791"
     d="M 99.390057,211.33646 C 90.89242,207.38 89.921396,196.59382 97.518603,190.54826 l 2.420174,-1.92588 h 79.866533 79.86653 l 2.42017,1.92588 c 7.57039,6.02421 6.68404,16.46392 -1.75483,20.66919 l -3.3149,1.65188 -77.18318,-0.006 -77.18318,-0.006 z"
     id="path6" />
</svg>
