<?xml version="1.0" encoding="UTF-8" standalone="no"?>
<svg
   version="1.1"
   id="Layer_1"
   x="0px"
   y="0px"
   viewBox="0 0 133.97 122.88"
   style="enable-background:new 0 0 133.97 122.88"
   xml:space="preserve"
   sodipodi:docname="open-file.svg"
   inkscape:version="1.3.2 (091e20e, 2023-11-25, custom)"
   xmlns:inkscape="http://www.inkscape.org/namespaces/inkscape"
   xmlns:sodipodi="http://sodipodi.sourceforge.net/DTD/sodipodi-0.dtd"
   xmlns="http://www.w3.org/2000/svg"
   xmlns:svg="http://www.w3.org/2000/svg"><defs
     id="defs1" /><sodipodi:namedview
     id="namedview1"
     pagecolor="#ffffff"
     bordercolor="#000000"
     borderopacity="0.25"
     inkscape:showpageshadow="2"
     inkscape:pageopacity="0.0"
     inkscape:pagecheckerboard="0"
     inkscape:deskcolor="#d1d1d1"
     inkscape:zoom="6.6162111"
     inkscape:cx="66.956751"
     inkscape:cy="49.348486"
     inkscape:window-width="1920"
     inkscape:window-height="1009"
     inkscape:window-x="-8"
     inkscape:window-y="-8"
     inkscape:window-maximized="1"
     inkscape:current-layer="Layer_1" /><g
     id="g1"><path
       d="M87.13,0l-26.3,28.11l14.77,0v12.89l-62.58,0.67v-8.02l0,0h4.81c1.49,0,2.71-1.21,2.71-2.71V24.5h23.02v6.45 c0,1.49,1.21,2.71,2.71,2.71h10.06v-5.41h-7.35v-6.45c0-1.49-1.21-2.71-2.71-2.71H17.82c-1.5,0-2.71,1.21-2.71,2.71v6.45h-4.81 c-1.49,0-2.71,1.21-2.71,2.71V41.7c-0.99,0-4.95-0.33-6.19,0.33c-0.93,0.5-1.52,1.53-1.4,2.65l7.33,69.78 c0.24,2.3,1.23,4.42,2.77,5.96c1.53,1.52,3.56,2.47,5.92,2.47h99.76c2.34,0,4.34-0.94,5.84-2.44c1.52-1.52,2.51-3.63,2.82-5.89 l9.46-69.57c0.04-0.18,0.06-0.38,0.06-0.57c0-1.5-1.21-2.71-2.71-2.71h-4.94V30.95c0-1.49-1.21-2.71-2.71-2.71h-7.97v5.41h5.26 v6.88l-22.25,0.24V28.12h14.77L87.13,0L87.13,0L87.13,0z M75.6,47.11v0.04l23.07,0v-0.04h29.51l-9.08,66.72 c-0.15,1.11-0.6,2.11-1.28,2.78c-0.53,0.53-1.22,0.86-2.04,0.86H16.02c-0.84,0-1.57-0.34-2.11-0.88c-0.66-0.66-1.09-1.61-1.2-2.68 L5.7,47.11H75.6L75.6,47.11z"
       id="path1" /></g><path
     style="fill:#ffffff;stroke:#ffffff;stroke-width:0.151144"
     d="m 14.963247,122.72337 c -3.724865,-0.494 -6.6855512,-3.5078 -7.4135102,-7.5465 C 7.4368422,114.55054 5.6998872,98.33806 3.6898366,79.149146 -0.35634992,40.522298 -0.13003971,43.515146 0.92038797,42.524465 1.6096729,41.874386 2.4684093,41.715719 5.2974762,41.715719 h 2.3352912 v -5.461431 c 0,-3.730859 0.055998,-5.648337 0.1767223,-6.051278 0.2166657,-0.723166 1.1061952,-1.559179 1.8908086,-1.777055 0.3176177,-0.0882 1.6827277,-0.160738 3.0335757,-0.161201 l 2.456089,-8.43e-4 v -3.481165 c 0,-3.789711 0.05754,-4.118549 0.850462,-4.85992 0.238844,-0.223317 0.625729,-0.478372 0.859746,-0.56679 0.594225,-0.224514 29.69045,-0.224514 30.284675,0 0.234017,0.08842 0.620902,0.343473 0.859746,0.56679 0.792917,0.741371 0.850462,1.070209 0.850462,4.85992 v 3.481165 h 3.703026 3.703026 v 2.6504 2.650401 l -5.49095,-0.04317 -5.49095,-0.04317 -0.571258,-0.435886 c -1.042702,-0.795611 -1.135842,-1.213954 -1.139611,-5.118653 l -0.0033,-3.438524 H 32.042509 20.48 l -0.0033,3.438524 c -0.0038,3.904484 -0.09689,4.322861 -1.139342,5.118653 l -0.570987,0.435886 -2.921773,0.04677 -2.921774,0.04677 v 4.091795 4.091795 l 9.106421,-0.103255 c 28.779733,-0.326324 48.86535,-0.538531 51.086641,-0.539732 l 2.53166,-0.0014 v -6.497751 -6.497749 l -7.310101,-0.03922 -7.310101,-0.03922 13.015784,-13.931921 c 7.15868,-7.6625565 13.04979,-13.93162047 13.091355,-13.93125318 0.0935,8.2629e-4 25.901727,27.63905618 25.971557,27.81315118 0.0277,0.06908 -3.21999,0.125595 -7.21712,0.125595 h -7.2675 v 6.372733 6.372735 l 7.50647,-0.100262 c 4.12856,-0.05514 9.16165,-0.100262 11.18465,-0.100262 h 3.67818 v -3.551882 -3.551881 h -2.64502 -2.64502 v -2.645019 -2.645018 l 3.96753,8.43e-4 c 2.42828,5.16e-4 4.20076,0.06559 4.56869,0.16774 0.77046,0.213896 1.66138,1.104812 1.87527,1.875268 0.10733,0.386591 0.1672,2.524762 0.16774,5.990404 l 8.5e-4,5.389237 2.83394,0.05478 c 2.32661,0.04498 2.92049,0.101598 3.31736,0.316287 0.74539,0.403229 1.29055,1.220963 1.36278,2.044135 0.0708,0.806772 -9.34295,70.273825 -9.72051,71.730905 -0.85314,3.29238 -2.99303,5.63665 -6.10649,6.68974 -0.80347,0.27177 -2.52558,0.28183 -51.4645,0.30078 -27.848266,0.0108 -51.041298,-0.0345 -51.540073,-0.10066 z m 102.173283,-5.52458 c 0.78144,-0.40792 1.52637,-1.38852 1.80592,-2.37725 0.16378,-0.57927 9.30316,-67.096926 9.30316,-67.709682 0,-0.05836 -27.57999,-0.106103 -61.288859,-0.106103 -59.0395577,0 -61.2888544,0.01004 -61.2888544,0.273523 0,0.400655 6.9318854,66.513802 7.0383244,67.128312 0.219346,1.26637 1.379508,2.76439 2.297584,2.96669 0.22708,0.05 0.480888,0.11388 0.564018,0.14186 0.08313,0.028 22.834065,0.0391 50.557637,0.0246 l 50.40649,-0.0263 z"
     id="path2" /></svg>
