<?xml version="1.0" encoding="UTF-8" standalone="no"?>
<svg
   id="Layer_1"
   data-name="Layer 1"
   viewBox="0 0 122.88 114.81"
   version="1.1"
   sodipodi:docname="print.svg"
   inkscape:version="1.3.2 (091e20e, 2023-11-25, custom)"
   xmlns:inkscape="http://www.inkscape.org/namespaces/inkscape"
   xmlns:sodipodi="http://sodipodi.sourceforge.net/DTD/sodipodi-0.dtd"
   xmlns="http://www.w3.org/2000/svg"
   xmlns:svg="http://www.w3.org/2000/svg">
  <defs
     id="defs1" />
  <sodipodi:namedview
     id="namedview1"
     pagecolor="#ffffff"
     bordercolor="#000000"
     borderopacity="0.25"
     inkscape:showpageshadow="2"
     inkscape:pageopacity="0.0"
     inkscape:pagecheckerboard="0"
     inkscape:deskcolor="#d1d1d1"
     inkscape:zoom="7.0812648"
     inkscape:cx="61.429703"
     inkscape:cy="68.702416"
     inkscape:window-width="1920"
     inkscape:window-height="1009"
     inkscape:window-x="-8"
     inkscape:window-y="-8"
     inkscape:window-maximized="1"
     inkscape:current-layer="Layer_1" />
  <title
     id="title1">printer</title>
  <path
     d="M18.46,89.86H7.82A7.8,7.8,0,0,1,2.3,87.57l-.24-.26A7.82,7.82,0,0,1,0,82V35.44a7.81,7.81,0,0,1,2.3-5.53l.25-.23a7.77,7.77,0,0,1,5.27-2.06H20.13A8.07,8.07,0,0,1,20,26.14v-18a8.05,8.05,0,0,1,2.39-5.72h0A8.07,8.07,0,0,1,28.1,0H94.78a8.13,8.13,0,0,1,8.11,8.11v18a8.07,8.07,0,0,1-.14,1.48h12.31a7.81,7.81,0,0,1,5.51,2.29h0a7.8,7.8,0,0,1,2.3,5.52V82a7.84,7.84,0,0,1-7.82,7.82H104.42v20.31a4.63,4.63,0,0,1-1.36,3.28,4.32,4.32,0,0,1-.39.34,4.6,4.6,0,0,1-2.89,1H23.1a4.63,4.63,0,0,1-3.28-1.36,3.06,3.06,0,0,1-.34-.39,4.6,4.6,0,0,1-1-2.89V89.86ZM27,27.62H95.91l.19-.17a1.86,1.86,0,0,0,.55-1.31v-18a1.88,1.88,0,0,0-1.87-1.87H28.1a1.87,1.87,0,0,0-1.32.55h0a1.87,1.87,0,0,0-.54,1.32v18a1.84,1.84,0,0,0,.55,1.31l.19.17Zm9.3,71.71a2.4,2.4,0,0,1,0-4.8H63.64a2.4,2.4,0,0,1,0,4.8Zm0-14.56a2.4,2.4,0,0,1,0-4.8H86.61a2.4,2.4,0,0,1,0,4.8ZM7.07,60.61H115.81V35.44a.76.76,0,0,0-.22-.54.77.77,0,0,0-.53-.22H7.82a.76.76,0,0,0-.46.16l-.07.07a.76.76,0,0,0-.22.53V60.61Zm108.74,7.07H102.19a4.13,4.13,0,0,1,.87.69,4.63,4.63,0,0,1,1.36,3.28V82.79h10.64a.75.75,0,0,0,.53-.22.79.79,0,0,0,.22-.53V67.68Zm-95.12,0H7.07V82a.81.81,0,0,0,.15.46l.07.07a.75.75,0,0,0,.53.22H18.46V71.65a4.63,4.63,0,0,1,1.36-3.28,4.13,4.13,0,0,1,.87-.69Zm76.67,4.23H25.52v35.83H97.36V71.91Z"
     id="path1" />
  <path
     style="fill:#ffffff;stroke:#ffffff;stroke-width:0.141218"
     d="m 21.95844,114.53735 c -1.232236,-0.37661 -2.233928,-1.18843 -2.835642,-2.29814 l -0.48206,-0.88905 -0.03871,-10.76785 -0.03871,-10.767847 h -5.619364 c -3.3707239,0 -5.9546715,-0.0604 -6.4573009,-0.150939 C 6.0257804,89.580508 5.1085506,89.25363 4.4483578,88.937128 2.9703004,88.228536 1.7928606,87.0915 1.0270282,85.633202 0.01191947,83.70023 0.07478356,85.475199 0.07478356,58.746567 c 0,-26.460271 -0.04899297,-24.927191 0.85530426,-26.764079 0.84115408,-1.708627 2.56762828,-3.203571 4.50679398,-3.90241 0.9085223,-0.327413 0.9887225,-0.331233 7.8375832,-0.373326 l 6.919667,-0.04253 -0.03712,-10.309568 C 20.116004,5.9672461 20.100807,6.1962847 21.013273,4.4483578 21.594201,3.335524 23.323285,1.6095081 24.446607,1.0211149 24.921395,0.77242244 25.715745,0.45682079 26.211829,0.31977784 27.062274,0.08484285 29.082194,0.07060885 61.570921,0.07060885 h 34.457121 l 1.129742,0.38518503 c 2.162371,0.73725962 3.842766,2.18531802 4.780316,4.11937152 0.88709,1.8299672 0.86839,1.5536682 0.86839,12.8299346 v 10.273605 l 6.52437,-1.7e-5 c 4.18522,-1.1e-5 6.79267,0.05552 7.27271,0.154895 2.86291,0.592641 5.43768,3.167407 6.03032,6.030314 0.10892,0.526195 0.15429,7.904304 0.15282,24.854316 -0.002,26.741135 0.0595,24.984994 -0.9472,26.900792 -0.66397,1.263524 -1.96229,2.570264 -3.15542,3.175865 -1.78186,0.904422 -1.87453,0.915222 -8.42836,0.982283 l -5.96645,0.06105 v 10.574157 c 0,10.46401 -0.003,10.58259 -0.30267,11.38312 -0.36254,0.96897 -1.28912,1.95404 -2.30986,2.45569 l -0.70609,0.347 -39.32913,0.0237 c -21.631023,0.013 -39.488413,-0.025 -39.68309,-0.0845 z M 97.36961,89.814463 V 71.879814 H 61.429703 25.489797 V 89.814463 107.74911 H 61.429703 97.36961 Z m 18.18566,-7.139501 0.31386,-0.219835 v -7.405922 -7.405922 h -6.85847 -6.85847 l 0.68688,0.670784 c 0.37779,0.368931 0.84275,0.988524 1.03324,1.376872 l 0.34636,0.706089 0.0395,6.248884 0.0395,6.248883 h 5.47184 c 4.72389,0 5.51475,-0.03005 5.7857,-0.219833 z m -96.955439,-6.099659 0.04091,-6.178275 0.335558,-0.675605 c 0.184556,-0.371584 0.657826,-0.991176 1.051709,-1.376873 l 0.716153,-0.701267 H 13.867217 6.9902766 v 7.281995 c 0,4.749608 0.050838,7.376988 0.1461863,7.555148 0.1407826,0.263055 0.3545926,0.273152 5.7843241,0.273152 h 5.638138 z M 115.86913,47.919227 c 0,-11.716443 -0.0199,-12.82633 -0.23371,-13.062638 -0.22564,-0.24933 -2.09635,-0.25825 -54.156995,-0.25825 -53.7349873,0 -53.9242638,9.85e-4 -54.205713,0.282435 -0.2782743,0.278274 -0.2824354,0.470725 -0.2824354,13.062638 V 60.723615 H 61.429703 115.86913 Z M 96.382634,27.219713 c 0.271686,-0.445595 0.279847,-0.737697 0.28036,-10.03347 C 96.663577,6.6197445 96.699727,7.0547124 95.774055,6.4902976 95.328981,6.2189198 94.795583,6.2146268 61.457995,6.2141071 24.036529,6.2135237 27.061848,6.1366538 26.472604,7.1030459 c -0.26617,0.4365314 -0.275681,0.7788512 -0.276191,9.9397991 -3.01e-4,5.406666 0.05513,9.634084 0.128863,9.828021 0.07117,0.187179 0.234574,0.445507 0.363131,0.574064 0.216237,0.216237 2.82409,0.233741 34.824068,0.233741 h 34.590328 z"
     id="path2" />
  <path
     style="fill:#ffffff;stroke:#ffffff;stroke-width:0.141218"
     d="m 35.568251,84.576959 c -0.595055,-0.172481 -1.42473,-1.116476 -1.545075,-1.757969 -0.208643,-1.112162 0.656123,-2.495511 1.673682,-2.677353 0.250182,-0.04471 12.000064,-0.06313 26.110851,-0.04094 l 25.655975,0.04035 0.398693,0.29542 c 0.769385,0.570094 1.065168,1.172096 1.004238,2.043907 -0.06769,0.968612 -0.450933,1.551154 -1.286597,1.955693 l -0.608472,0.294556 -25.480514,-0.01274 c -14.799844,-0.0074 -25.665901,-0.06647 -25.922781,-0.14093 z"
     id="path3" />
  <path
     style="fill:#ffffff;stroke:#ffffff;stroke-width:0.141218"
     d="m 35.443019,99.079253 c -0.595849,-0.259628 -1.3074,-1.115468 -1.418128,-1.705695 -0.181757,-0.96885 0.340324,-2.032129 1.217532,-2.479647 0.531399,-0.271099 0.898073,-0.278046 14.676947,-0.278046 15.369251,0 14.651015,-0.03703 15.41209,0.794609 0.879572,0.961122 0.815494,2.246756 -0.158192,3.173946 -0.293828,0.279796 -0.740005,0.549875 -0.991504,0.600175 -0.2515,0.0503 -6.724691,0.08897 -14.384869,0.08593 -11.19104,-0.0044 -14.011354,-0.04202 -14.353876,-0.191269 z"
     id="path4" />
</svg>
