<?xml version="1.0" encoding="UTF-8" standalone="no"?>
<svg
   shape-rendering="geometricPrecision"
   text-rendering="geometricPrecision"
   image-rendering="optimizeQuality"
   fill-rule="evenodd"
   clip-rule="evenodd"
   viewBox="0 0 512 410.87"
   version="1.1"
   id="svg1"
   sodipodi:docname="redo-transparent.svg"
   inkscape:version="1.3.2 (091e20e, 2023-11-25, custom)"
   xmlns:inkscape="http://www.inkscape.org/namespaces/inkscape"
   xmlns:sodipodi="http://sodipodi.sourceforge.net/DTD/sodipodi-0.dtd"
   xmlns="http://www.w3.org/2000/svg"
   xmlns:svg="http://www.w3.org/2000/svg">
  <defs
     id="defs1" />
  <sodipodi:namedview
     id="namedview1"
     pagecolor="#ffffff"
     bordercolor="#000000"
     borderopacity="0.25"
     inkscape:showpageshadow="2"
     inkscape:pageopacity="0.0"
     inkscape:pagecheckerboard="0"
     inkscape:deskcolor="#d1d1d1"
     inkscape:zoom="1.9787281"
     inkscape:cx="256.2252"
     inkscape:cy="205.435"
     inkscape:window-width="1920"
     inkscape:window-height="1009"
     inkscape:window-x="-8"
     inkscape:window-y="-8"
     inkscape:window-maximized="1"
     inkscape:current-layer="svg1" />
  <path
     fill-rule="nonzero"
     d="M483.06 205.45 313.78 370.69v-68.23c0-6.18-4.7-11.27-10.72-11.88-60.27-11.97-115.03-12.11-164.86 3.05-40.13 12.21-76.81 34.23-110.31 67.83 10.56-65.33 37.76-119.98 78.64-160.47 47.84-47.36 114.68-75.56 195.78-78.99 6.41-.25 11.43-5.53 11.43-11.89l.04-69.89 169.28 165.23zM310.14 407.5l198.49-193.75c4.58-4.71 4.48-12.24-.23-16.83L310.78 4.04A11.87 11.87 0 0 0 301.84 0c-6.58 0-11.93 5.35-11.93 11.94v86.93c-82.19 5.79-150.41 35.99-200.16 85.25C37.33 236.03 5.67 308.88.02 396.46c-.22 3.73 1.3 7.51 4.43 10.03 5.12 4.11 12.62 3.3 16.74-1.82 36.96-46 78.09-74.34 123.91-88.28 43.54-13.25 91.69-13.7 144.81-4.11v86.69c.03 2.99 1.15 5.99 3.4 8.3 4.59 4.71 12.13 4.82 16.83.23z"
     id="path1" />
  <path
     style="fill:#ffffff;stroke:#ffffff;stroke-width:0.505375"
     d="m 299.94015,410.3516 c -3.81279,-0.6718 -6.96465,-3.15339 -8.64877,-6.80954 -0.88212,-1.91505 -0.93174,-4.37836 -0.94226,-46.77771 l -0.0111,-44.7562 -8.71772,-1.37624 c -86.0921,-13.59118 -152.24826,-0.10036 -208.572138,42.53282 -17.102764,12.94558 -31.353498,26.68069 -47.513679,45.79451 -5.665076,6.70049 -6.877167,7.86987 -9.187567,8.86378 -6.7049171,2.88438 -14.7850135,-1.60775 -15.86672243,-8.82111 -0.5713632,-3.81012 1.78179763,-26.70556 4.34301843,-42.25607 7.777178,-47.2193 24.08309,-90.33046 47.863982,-126.54746 11.303705,-17.21492 21.679446,-29.94059 36.487641,-44.75145 10.784766,-10.78672 18.847855,-17.81531 30.160965,-26.29129 41.37253,-30.99707 93.42052,-51.064 150.53453,-58.03808 4.4473,-0.54305 9.79164,-1.123639 11.87631,-1.290185 2.08468,-0.166547 4.867,-0.429645 6.18294,-0.584664 l 2.39262,-0.281853 0.13426,-45.350925 0.13425,-45.3509281 1.51613,-2.4334233 c 3.04048,-4.88006745 9.49718,-6.81361248 14.54809,-4.3566227 1.45796,0.7092141 33.67315,31.8311971 102.17798,98.7106011 55.02679,53.72114 100.55598,98.43058 101.17597,99.3543 2.23699,3.33291 2.12495,8.68088 -0.2539,12.11675 -1.64171,2.37124 -199.22839,195.30919 -201.74591,196.99936 -2.09619,1.4073 -5.57529,2.14099 -8.06892,1.70163 z m 101.51308,-124.78568 82.02014,-80.073 -8.00068,-7.90199 c -4.40037,-4.3461 -42.56834,-41.62285 -84.8177,-82.83723 l -76.81702,-74.935233 -0.25269,36.566439 c -0.28262,40.897294 -0.0405,38.317334 -3.95246,42.117014 -2.45201,2.38164 -5.2365,3.15613 -12.72492,3.53938 -14.8719,0.76113 -33.87501,3.12969 -48.84079,6.08757 -48.88805,9.66235 -90.45426,28.93638 -126.2717,58.55151 -7.65348,6.32816 -24.857882,23.50895 -31.179109,31.13631 -28.373934,34.23671 -47.755459,74.23428 -58.487375,120.70012 -1.728655,7.48454 -4.685717,22.89514 -4.44032,23.14054 0.08656,0.0866 2.997566,-2.50717 6.468901,-5.76384 7.460706,-6.99935 12.457731,-11.41452 17.643446,-15.58904 38.753798,-31.19701 81.926957,-49.58545 130.892167,-55.74999 23.88687,-3.00727 50.55502,-3.09054 77.57508,-0.24222 15.0525,1.58675 42.45425,6.00073 45.9617,7.40367 2.39322,0.95727 4.89908,3.47612 6.16709,6.19904 l 1.17841,2.53056 0.005,35.30435 0.005,35.30435 2.92391,-2.70766 c 1.60814,-1.48921 39.83296,-38.7405 84.94404,-82.78065 z"
     id="path2" />
</svg>
