<?xml version="1.0" encoding="UTF-8" standalone="no"?>
<svg
   shape-rendering="geometricPrecision"
   text-rendering="geometricPrecision"
   image-rendering="optimizeQuality"
   fill-rule="evenodd"
   clip-rule="evenodd"
   viewBox="0 0 512 511.52"
   version="1.1"
   id="svg1"
   sodipodi:docname="save-file.svg"
   inkscape:version="1.3.2 (091e20e, 2023-11-25, custom)"
   xmlns:inkscape="http://www.inkscape.org/namespaces/inkscape"
   xmlns:sodipodi="http://sodipodi.sourceforge.net/DTD/sodipodi-0.dtd"
   xmlns="http://www.w3.org/2000/svg"
   xmlns:svg="http://www.w3.org/2000/svg">
  <defs
     id="defs1" />
  <sodipodi:namedview
     id="namedview1"
     pagecolor="#ffffff"
     bordercolor="#000000"
     borderopacity="0.25"
     inkscape:showpageshadow="2"
     inkscape:pageopacity="0.0"
     inkscape:pagecheckerboard="0"
     inkscape:deskcolor="#d1d1d1"
     inkscape:zoom="1.5893807"
     inkscape:cx="256.07458"
     inkscape:cy="255.75999"
     inkscape:window-width="1920"
     inkscape:window-height="1009"
     inkscape:window-x="-8"
     inkscape:window-y="-8"
     inkscape:window-maximized="1"
     inkscape:current-layer="svg1" />
  <path
     fill-rule="nonzero"
     d="M36.75 0h438.5C495.55 0 512 16.82 512 37.03v437.46c0 20.19-16.47 37.03-36.75 37.03H98.28c-2.89 0-5.5-1.17-7.39-3.06L3.06 420.62A10.387 10.387 0 0 1 0 413.24V37.03C0 16.81 16.45 0 36.75 0zM174.5 447.79c-13.75 0-13.75-20.9 0-20.9h153.97c13.74 0 13.74 20.9 0 20.9H174.5zm0-64.38c-13.75 0-13.75-20.9 0-20.9h153.97c13.74 0 13.74 20.9 0 20.9H174.5zm209.51 106.91V350.25c0-16.78-13.87-30.64-30.65-30.64H149.6c-16.78 0-30.64 13.86-30.64 30.64v140.07h265.05zm20.89-140.07v140.37h70.35c8.85 0 15.85-7.37 15.85-16.13V37.03c0-8.78-6.99-16.13-15.85-16.13H404.9v170.17c0 28.31-23.23 51.55-51.54 51.55H149.6c-28.34 0-51.54-23.21-51.54-51.55V20.9H36.75c-8.87 0-15.85 7.34-15.85 16.13v371.88l77.16 77.16V350.25c0-28.32 23.22-51.54 51.54-51.54h203.76c28.22 0 51.54 23.32 51.54 51.54zm-20.89-159.18V20.9H118.96v170.17c0 16.8 13.85 30.65 30.64 30.65h203.76c16.77 0 30.65-13.88 30.65-30.65z"
     id="path1" />
  <path
     style="fill:#ffffff;stroke:#ffffff;stroke-width:0.629176"
     d="M 97.522261,511.21549 C 97.176214,511.09745 96.043698,510.8165 95.005558,510.59114 93.589232,510.28369 81.83707,498.92177 47.929345,465.07815 22.708829,439.90532 2.2046388,418.94339 1.5276242,417.64056 0.3374196,415.35015 0.31479355,411.71456 0.3255127,224.48356 0.33748484,15.366751 0.07441137,29.504357 4.1076222,21.232476 8.751352,11.708457 17.051227,4.7606353 27.716632,1.469386 31.317221,0.35827615 39.932638,0.31458794 255.44541,0.31458794 c 186.67335,0 224.56308,0.14246536 227.44708,0.85520086 12.77149,3.1562772 23.24681,12.9923262 27.23204,25.5701862 l 1.39546,4.404231 V 255.75999 480.37578 l -1.39546,4.40423 c -3.85124,12.15496 -13.34057,21.40106 -26.00222,25.33573 -3.19063,0.9915 -16.88056,1.0752 -194.70141,1.19042 -105.1982,0.0682 -191.552592,0.0274 -191.898639,-0.0907 z m 286.444899,-94.54376 -0.16987,-74.08546 -1.4347,-3.3748 c -2.73105,-6.42418 -6.87068,-11.32118 -12.8609,-15.21386 -7.32196,-4.75811 1.23776,-4.45445 -119.71887,-4.24714 l -108.21825,0.18546 -4.92799,2.35304 c -8.84695,4.22427 -15.40217,12.44358 -17.34164,21.74391 -0.48403,2.32108 -0.69529,25.1183 -0.69529,75.02922 v 71.69509 h 132.76869 132.76868 z m 96.53015,73.34553 c 3.31994,-0.99468 7.62448,-4.90023 9.42071,-8.5475 l 1.46834,-2.9815 V 255.75999 33.031734 l -1.46834,-2.981499 c -1.79623,-3.647273 -6.10077,-7.552832 -9.42071,-8.547509 -1.76992,-0.530283 -12.82631,-0.739922 -39.0235,-0.739922 h -36.55388 l -0.209,88.556506 c -0.19222,81.45004 -0.2961,88.88469 -1.2945,92.64615 -4.54602,17.12715 -15.40722,29.98812 -30.69412,36.34556 -10.06367,4.18521 -3.2696,3.97722 -123.56866,3.78292 l -108.84743,-0.17581 -5.97717,-2.02605 c -10.78211,-3.65475 -20.84935,-11.16167 -26.85736,-20.02695 -3.4046,-5.02374 -4.75106,-7.7847 -6.88826,-14.12462 L 98.780613,200.39252 98.610798,110.55667 98.440984,20.720827 64.949889,20.899109 C 34.66468,21.060326 31.269448,21.18103 29.48074,22.16008 c -2.954118,1.616938 -5.927293,4.842761 -7.404124,8.0333 l -1.313812,2.838354 -0.161426,188.117556 -0.161426,188.11755 38.539236,38.54306 c 21.196581,21.19868 38.745561,38.54305 38.997741,38.54305 0.252173,0 0.539675,-32.63063 0.638884,-72.51252 0.200764,-80.7043 -0.121431,-74.70166 4.540287,-84.58709 2.9814,-6.32218 6.44709,-11.19696 11.1229,-15.64524 6.8323,-6.49984 12.45718,-9.78436 21.74412,-12.69702 l 5.54145,-1.73795 h 109.47661 c 123.51676,0 112.37299,-0.44928 123.94764,4.99712 13.95301,6.56552 23.74143,18.40288 28.12462,34.01178 l 1.41346,5.03341 0.20061,73.77087 0.2006,73.77088 h 36.54979 c 26.19405,0 37.2495,-0.20965 39.01941,-0.73993 z M 359.01626,221.46035 c 4.39464,-0.82826 11.49453,-4.2564 14.82641,-7.15886 3.6575,-3.1861 7.50642,-9.1863 9.00502,-14.03821 1.24051,-4.0163 1.26418,-5.73551 1.26418,-91.79672 V 20.762804 H 251.35576 118.59965 l 0.009,86.668976 c 0.0102,95.24251 -0.16095,90.84622 3.8287,98.33158 2.45867,4.61294 7.89599,10.04502 12.52353,12.51148 7.34852,3.91672 1.13732,3.71447 115.83683,3.77183 68.5105,0.0343 106.00335,-0.16888 108.21825,-0.58632 z"
     id="path2" />
  <path
     style="fill:#ffffff;stroke:#ffffff;stroke-width:0.629176"
     d="m 170.50666,382.27994 c -5.45811,-2.42588 -7.43704,-8.5817 -4.56152,-14.18948 2.82043,-5.50033 -4.71109,-5.05629 85.7154,-5.05363 78.63297,0.002 79.94805,0.0224 81.96572,1.2526 2.97518,1.81399 4.55063,4.75738 4.55342,8.50709 0.003,4.30611 -1.62995,7.20037 -5.05363,8.95594 l -2.76076,1.41565 -78.98555,-0.0246 c -64.41789,-0.0201 -79.33367,-0.17935 -80.87308,-0.86354 z"
     id="path3" />
  <path
     style="fill:#ffffff;stroke:#ffffff;stroke-width:0.629176"
     d="m 169.56876,446.17672 c -3.14245,-1.68532 -5.21735,-5.83851 -4.86244,-9.73282 0.29349,-3.2204 1.63211,-5.50304 4.4696,-7.62166 1.73064,-1.29219 2.04782,-1.29787 81.64387,-1.46166 72.86258,-0.14993 80.09753,-0.0738 82.07381,0.86404 3.29101,1.56168 4.89088,4.26015 5.16475,8.71126 0.19626,3.18967 -0.005,4.1564 -1.24938,6.00394 -3.19692,4.74614 3.47939,4.40216 -85.46302,4.40325 -76.33117,9.4e-4 -79.68997,-0.047 -81.77719,-1.16635 z"
     id="path4" />
</svg>
