<?xml version="1.0" encoding="UTF-8" standalone="no"?>
<svg
   shape-rendering="geometricPrecision"
   text-rendering="geometricPrecision"
   image-rendering="optimizeQuality"
   fill-rule="evenodd"
   clip-rule="evenodd"
   viewBox="0 0 512 410.87"
   version="1.1"
   id="svg1"
   sodipodi:docname="undo-transparent.svg"
   inkscape:version="1.3.2 (091e20e, 2023-11-25, custom)"
   xmlns:inkscape="http://www.inkscape.org/namespaces/inkscape"
   xmlns:sodipodi="http://sodipodi.sourceforge.net/DTD/sodipodi-0.dtd"
   xmlns="http://www.w3.org/2000/svg"
   xmlns:svg="http://www.w3.org/2000/svg">
  <defs
     id="defs1" />
  <sodipodi:namedview
     id="namedview1"
     pagecolor="#ffffff"
     bordercolor="#000000"
     borderopacity="0.25"
     inkscape:showpageshadow="2"
     inkscape:pageopacity="0.0"
     inkscape:pagecheckerboard="0"
     inkscape:deskcolor="#d1d1d1"
     inkscape:zoom="1.9787281"
     inkscape:cx="256.2252"
     inkscape:cy="165.00499"
     inkscape:window-width="1920"
     inkscape:window-height="1009"
     inkscape:window-x="-8"
     inkscape:window-y="-8"
     inkscape:window-maximized="1"
     inkscape:current-layer="svg1" />
  <path
     fill-rule="nonzero"
     d="m28.94 205.45 169.28 165.24v-68.24c0-6.17 4.7-11.26 10.72-11.87 60.27-11.97 115.03-12.11 164.86 3.05 40.12 12.21 76.8 34.22 110.31 67.83-10.57-65.33-37.77-119.98-78.64-160.47-47.84-47.36-114.68-75.56-195.78-78.99-6.41-.25-11.43-5.53-11.43-11.89l-.04-69.89L28.94 205.45zM201.86 407.5 3.37 213.75c-4.58-4.71-4.48-12.25.23-16.83L201.22 4.04A11.87 11.87 0 0 1 210.16 0c6.58 0 11.93 5.35 11.93 11.94v86.93c82.19 5.79 150.41 35.99 200.16 85.25 52.41 51.9 84.08 124.76 89.73 212.34.22 3.73-1.3 7.51-4.43 10.02-5.13 4.12-12.62 3.31-16.74-1.82-36.96-45.99-78.09-74.33-123.91-88.27-43.54-13.25-91.69-13.7-144.81-4.11v86.69c-.03 2.99-1.15 5.99-3.4 8.3-4.59 4.71-12.13 4.81-16.83.23z"
     id="path1" />
  <path
     style="fill:#ffffff;stroke:#ffffff;stroke-width:0.505375"
     d="m 208.03789,410.2807 c -1.209,-0.21227 -2.86924,-0.81082 -3.68942,-1.33012 -0.82018,-0.5193 -8.92775,-8.20412 -18.01683,-17.07737 C 177.24256,382.99996 132.14956,338.98232 86.124966,294.05625 30.784903,240.03705 2.1162235,211.71117 1.4764182,210.41986 0.18551149,207.81446 0.17988141,203.06654 1.4646256,200.47498 2.0691709,199.25551 13.958776,187.27903 33.824877,167.87829 184.45649,20.775172 203.09066,2.6879712 205.12493,1.606371 c 5.14947,-2.7379139 11.65442,-0.77286244 14.8396,4.482836 L 221.607,8.7993525 V 53.926439 c 0,24.819899 0.18481,45.12709 0.41068,45.12709 0.22587,0 4.14885,0.352095 8.71772,0.782432 62.27192,5.865339 117.5261,26.172599 162.4745,59.713349 10.61335,7.91974 18.35574,14.70229 29.56868,25.90299 11.4117,11.39925 17.83294,18.7621 26.60028,30.5009 27.17865,36.39017 46.13334,80.43227 55.71606,129.45889 3.06388,15.67531 5.48418,33.96192 6.39658,48.32994 0.31995,5.03846 0.26386,5.52852 -0.93176,8.14006 -1.91724,4.18781 -6.15638,6.9664 -10.62826,6.9664 -3.60613,0 -6.87616,-2.00319 -10.54995,-6.4628 -39.46867,-47.91093 -82.95208,-76.85408 -134.5335,-89.54732 -33.45996,-8.23389 -71.43103,-9.49069 -113.78408,-3.76614 -5.28117,0.71382 -11.76261,1.68014 -14.4032,2.14739 l -4.80106,0.84953 -0.25269,45.23108 -0.25269,45.23108 -1.40321,2.38709 c -2.35146,4.00024 -7.21146,6.18778 -11.91321,5.3623 z m -8.31813,-112.91527 c 1.26884,-2.3712 3.82771,-4.78246 5.99536,-5.6495 1.99203,-0.79679 18.51113,-3.77575 29.7897,-5.3721 32.89515,-4.65592 61.589,-5.39782 89.43153,-2.3123 31.43708,3.48387 58.59064,11.29818 85.93365,24.73017 24.41885,11.99553 43.97336,25.67945 66.22307,46.34176 4.01995,3.73317 7.30901,6.70943 7.30901,6.61393 0,-0.0955 -0.54689,-3.23206 -1.21532,-6.97012 -15.43121,-86.29689 -61.498,-154.77637 -130.68759,-194.27051 -39.1362,-22.33934 -87.30531,-35.80389 -137.46204,-38.42431 -3.1965,-0.16699 -6.76883,-0.54745 -7.93851,-0.84546 -2.63296,-0.67083 -5.88423,-3.39051 -7.36652,-6.1621 -1.11916,-2.0926 -1.11978,-2.11001 -1.37235,-38.614298 l -0.25269,-36.520757 -69.74177,68.060725 c -38.357976,37.4334 -76.523796,74.68005 -84.812936,82.77034 l -15.071163,14.7096 84.812939,82.77575 84.81293,82.77575 0.25269,-35.78361 c 0.25154,-35.62087 0.25772,-35.79303 1.36001,-37.85296 z"
     id="path2" />
</svg>
